<svg xmlns="http://www.w3.org/2000/svg" xmlns:xlink="http://www.w3.org/1999/xlink" width="478.085" height="472.536" viewBox="0 0 478.085 472.536">
    <defs>
        <clipPath id="clip-path">
            <path id="Path_4969" data-name="Path 4969" d="M71.848,249.467a33.349,33.349,0,0,1,13.688-33.586c23.089-16.58,67.123-4.617,82.656,13.435,0,0,10.285,10.495,9.656,21.828Z" transform="translate(-71.268 -207.984)" fill="#454380"/>
        </clipPath>
    </defs>
    <g id="Group_4157" data-name="Group 4157" transform="translate(-96.452 -44.472)">
        <g id="Group_4003" data-name="Group 4003" transform="translate(160.082 44.472)">
            <g id="Group_3998" data-name="Group 3998" transform="translate(223.769)">
                <g id="Group_3996" data-name="Group 3996" transform="translate(0)">
                    <g id="Group_3993" data-name="Group 3993" transform="translate(9.532 10.27)" opacity="0.63" style="mix-blend-mode: multiply;isolation: isolate">
                        <g id="Group_3992" data-name="Group 3992">
                            <path id="Path_4976" data-name="Path 4976" d="M286.956,205.731H428.4V49.47H286.956Z" transform="translate(-286.956 -49.47)" fill="#d3d3d3"/>
                        </g>
                    </g>
                    <rect id="Rectangle_2183" data-name="Rectangle 2183" width="146.678" height="162" transform="translate(4.535 4.789)" fill="#fff"/>
                    <g id="Group_3995" data-name="Group 3995">
                        <g id="Group_3994" data-name="Group 3994">
                            <path id="Path_4977" data-name="Path 4977" d="M438.065,216.048H282.317V44.472H438.065Zm-148.6-7.656H430.914V52.13H289.468Z" transform="translate(-282.317 -44.472)" fill="#a2a0e6"/>
                        </g>
                    </g>
                    <rect id="Rectangle_2184" data-name="Rectangle 2184" width="105.555" height="118.868" transform="translate(25.035 25.449)" fill="#ffce91"/>
                </g>
                <g id="Group_3997" data-name="Group 3997" transform="translate(35.395 37.332)">
                    <circle id="Ellipse_475" data-name="Ellipse 475" cx="16.219" cy="16.219" r="16.219" fill="#f7a742"/>
                    <circle id="Ellipse_476" data-name="Ellipse 476" cx="30.423" cy="30.423" r="30.423" transform="translate(27.678 34.284)" fill="#f7a742"/>
                    <rect id="Rectangle_2185" data-name="Rectangle 2185" width="14.552" height="24.185" transform="translate(47.564 22.62) rotate(-90)" fill="#f8e5c9"/>
                </g>
            </g>
            <g id="Group_4002" data-name="Group 4002" transform="translate(0 52.096)">
                <g id="Group_4001" data-name="Group 4001">
                    <g id="Group_3999" data-name="Group 3999" transform="translate(123.65 29.105)">
                        <path id="Path_4978" data-name="Path 4978" d="M179.042,74.9c0-9.678-8.16-15.906-18.224-15.906S142.593,65.217,142.593,74.9a17.386,17.386,0,0,0,8.739,14.965H170.3A17.383,17.383,0,0,0,179.042,74.9Z" transform="translate(-142.593 -58.989)" fill="#2d2d2d"/>
                    </g>
                    <g id="Group_4000" data-name="Group 4000" transform="translate(0 59.814)">
                        <rect id="Rectangle_2186" data-name="Rectangle 2186" width="191.392" height="9.45" fill="#fff"/>
                    </g>
                    <rect id="Rectangle_2187" data-name="Rectangle 2187" width="11.83" height="59.558" rx="0.878" transform="translate(26.149)" fill="#ff6f92"/>
                    <rect id="Rectangle_2188" data-name="Rectangle 2188" width="11.83" height="59.558" rx="0.878" transform="translate(39.957)" fill="#ff6f92"/>
                    <rect id="Rectangle_2189" data-name="Rectangle 2189" width="11.83" height="59.558" rx="0.878" transform="translate(53.478)" fill="#2d2d2d"/>
                    <path id="Path_4979" data-name="Path 4979" d="M150.7,97.355l-7.35,4.582a1.607,1.607,0,0,1-2.283-.662L115.152,52.823a1.888,1.888,0,0,1,.612-2.466l7.35-4.58a1.6,1.6,0,0,1,2.283.66l25.911,48.453A1.888,1.888,0,0,1,150.7,97.355Z" transform="translate(-48.125 -44.077)" fill="#ff6f92"/>
                    <path id="Path_4980" data-name="Path 4980" d="M158.677,97.355l-7.35,4.582a1.606,1.606,0,0,1-2.283-.662L123.132,52.823a1.886,1.886,0,0,1,.612-2.466l7.35-4.58a1.6,1.6,0,0,1,2.283.66l25.909,48.453A1.885,1.885,0,0,1,158.677,97.355Z" transform="translate(-39.708 -44.077)" fill="#ff6f92"/>
                </g>
                <rect id="Rectangle_2190" data-name="Rectangle 2190" width="7.897" height="8.49" transform="translate(28.034 7.492)" fill="#fff"/>
                <rect id="Rectangle_2191" data-name="Rectangle 2191" width="7.897" height="2.18" transform="translate(41.923 52.617)" fill="#fff"/>
                <rect id="Rectangle_2192" data-name="Rectangle 2192" width="7.897" height="2.18" transform="translate(41.923 47.355)" fill="#fff"/>
            </g>
        </g>
        <g id="Group_3991" data-name="Group 3991" transform="translate(96.452 192.86)">
            <g id="Group_3961" data-name="Group 3961" transform="translate(138.994 104.185)">
                <g id="Group_3955" data-name="Group 3955" transform="translate(108.416 27.887)">
                    <g id="Group_3954" data-name="Group 3954" transform="translate(31.835 140.016)">
                        <path id="Path_4922" data-name="Path 4922" d="M213.7,243.407,209.9,216l19.719-3.741,4.294,34.173-14.881,3.15Z" transform="translate(-207.789 -212.263)" fill="#f9b8b2"/>
                        <g id="Group_3953" data-name="Group 3953" transform="translate(0 27.504)">
                            <g id="Group_3952" data-name="Group 3952">
                                <path id="Path_4923" data-name="Path 4923" d="M213.359,229.546s14.855,6,21.758-3.647L264.6,244.252l-55.745-.022Z" transform="translate(-208.855 -225.899)" fill="#09183d"/>
                                <path id="Path_4924" data-name="Path 4924" d="M264.63,239.888l-55.745-.022-.03-4.879,55.745.022Z" transform="translate(-208.855 -216.656)" fill="#fff"/>
                                <path id="Path_4925" data-name="Path 4925" d="M222.427,233.276a1.006,1.006,0,0,0,.413-.319,20.758,20.758,0,0,1,4.659-4.6.928.928,0,0,0,.27-1.327,1.046,1.046,0,0,0-1.394-.258,22.3,22.3,0,0,0-5.172,5.073.926.926,0,0,0,.232,1.333A1.049,1.049,0,0,0,222.427,233.276Z" transform="translate(-196.486 -225.174)" fill="#fff"/>
                                <path id="Path_4926" data-name="Path 4926" d="M224.861,234.476a.993.993,0,0,0,.413-.319,20.8,20.8,0,0,1,4.661-4.6.928.928,0,0,0,.268-1.327,1.042,1.042,0,0,0-1.392-.258,22.253,22.253,0,0,0-5.172,5.073.928.928,0,0,0,.23,1.335A1.054,1.054,0,0,0,224.861,234.476Z" transform="translate(-194.01 -223.955)" fill="#fff"/>
                                <path id="Path_4927" data-name="Path 4927" d="M227.294,235.674a.993.993,0,0,0,.414-.319,20.843,20.843,0,0,1,4.661-4.6.927.927,0,0,0,.27-1.327,1.047,1.047,0,0,0-1.394-.258,22.312,22.312,0,0,0-5.172,5.071.926.926,0,0,0,.232,1.335A1.045,1.045,0,0,0,227.294,235.674Z" transform="translate(-191.535 -222.735)" fill="#fff"/>
                            </g>
                        </g>
                    </g>
                    <path id="Path_4928" data-name="Path 4928" d="M231.367,142.846S255.19,226.3,256.276,295.315l-39.56,7.033s-4.28-71.925-22.343-132.067l-1.3-27.436Z" transform="translate(-193.072 -142.846)" fill="#f7a742"/>
                </g>
                <g id="Group_3960" data-name="Group 3960" transform="translate(0)">
                    <g id="Group_3958" data-name="Group 3958" transform="translate(0 149.101)">
                        <path id="Path_4929" data-name="Path 4929" d="M148.1,225.785l15.6-22.844,17.117,10.482-19.786,28.192L147.9,233.947Z" transform="translate(-130.596 -202.941)" fill="#f9b8b2"/>
                        <g id="Group_3957" data-name="Group 3957" transform="translate(0 21.903)">
                            <g id="Group_3956" data-name="Group 3956">
                                <path id="Path_4930" data-name="Path 4930" d="M154.139,213.8s6.967,14.43,18.563,11.921l9.5,33.406-41.264-37.48Z" transform="translate(-137.68 -213.8)" fill="#09183d"/>
                                <path id="Path_4931" data-name="Path 4931" d="M180.586,258.8l-41.265-37.48,3.257-3.633,41.265,37.48Z" transform="translate(-139.322 -209.844)" fill="#fff"/>
                                <path id="Path_4932" data-name="Path 4932" d="M154.217,223.753a1.007,1.007,0,0,0,.52.042,20.794,20.794,0,0,1,6.543-.276.926.926,0,0,0,1.091-.8,1.046,1.046,0,0,0-.857-1.128,22.28,22.28,0,0,0-7.239.28.928.928,0,0,0-.726,1.144A1.053,1.053,0,0,0,154.217,223.753Z" transform="translate(-124.879 -206.047)" fill="#fff"/>
                                <path id="Path_4933" data-name="Path 4933" d="M155.214,226.277a1.007,1.007,0,0,0,.52.042,20.754,20.754,0,0,1,6.543-.274.928.928,0,0,0,1.091-.8,1.043,1.043,0,0,0-.857-1.128,22.278,22.278,0,0,0-7.239.28.927.927,0,0,0-.726,1.144A1.053,1.053,0,0,0,155.214,226.277Z" transform="translate(-123.865 -203.48)" fill="#fff"/>
                                <path id="Path_4934" data-name="Path 4934" d="M156.211,228.8a1.007,1.007,0,0,0,.52.04,20.785,20.785,0,0,1,6.543-.272.929.929,0,0,0,1.091-.8,1.043,1.043,0,0,0-.857-1.128,22.278,22.278,0,0,0-7.239.28.927.927,0,0,0-.726,1.144A1.053,1.053,0,0,0,156.211,228.8Z" transform="translate(-122.851 -200.913)" fill="#fff"/>
                            </g>
                        </g>
                    </g>
                    <g id="Group_3959" data-name="Group 3959" transform="translate(19.594)">
                        <path id="Path_4935" data-name="Path 4935" d="M248.316,185.939s-15.6,56.983-65.973,117.782l-33.307-21.657s31.086-43.735,39.792-70.191,13.982-64.394,47.725-82.854l39.6,27.887Z" transform="translate(-149.036 -129.02)" fill="#f7a742"/>
                        <line id="Line_171" data-name="Line 171" y1="8.769" x2="18.081" transform="translate(94.483 62.279)" fill="none" stroke="#de8420" stroke-miterlimit="10" stroke-width="0.704"/>
                    </g>
                </g>
            </g>
            <g id="Group_3968" data-name="Group 3968" transform="translate(235.695 47.712)">
                <g id="Group_3966" data-name="Group 3966" transform="translate(78.799 39.876)">
                    <g id="Group_3962" data-name="Group 3962">
                        <path id="Path_4936" data-name="Path 4936" d="M250.708,135.177,246.937,172.9c-.416,5.8-3.849,10.039-9.637,9.46h0a10.33,10.33,0,0,1-9.3-10.188l-.206-38.142Z" transform="translate(-224.848 -107.327)" fill="#f9b8b2"/>
                        <path id="Path_4937" data-name="Path 4937" d="M255.919,157.833l2.727-20.822a15.1,15.1,0,0,0-12.9-16.06h0c-8.4-1.214-15.448,4.613-16.453,13.04l-2.961,23.16Z" transform="translate(-226.331 -120.792)" fill="#fff"/>
                    </g>
                    <g id="Group_3965" data-name="Group 3965" transform="translate(3.388 56.213)">
                        <path id="Path_4938" data-name="Path 4938" d="M238.893,148.742h0c-6.114-.823-11.441,4.752-10.836,10.89l11.971,48.822,13.6-.361-6.914-50.071A8.765,8.765,0,0,0,238.893,148.742Z" transform="translate(-228.011 -148.661)" fill="#f9b8b2"/>
                        <g id="Group_3963" data-name="Group 3963" transform="translate(9.178 51.227)">
                            <path id="Path_4939" data-name="Path 4939" d="M232.666,184.044a11.529,11.529,0,1,1,9.883,12.968A11.53,11.53,0,0,1,232.666,184.044Z" transform="translate(-232.561 -174.058)" fill="#f9b8b2"/>
                            <path id="Path_4940" data-name="Path 4940" d="M244.714,194.518s4.77,2.209,6.037-3.707-.367-14.256-11.709-16.7Z" transform="translate(-225.97 -174.005)" fill="#f9b8b2"/>
                        </g>
                        <g id="Group_3964" data-name="Group 3964" transform="translate(9.178 51.227)">
                            <path id="Path_4941" data-name="Path 4941" d="M232.666,184.044a11.529,11.529,0,1,1,9.883,12.968A11.53,11.53,0,0,1,232.666,184.044Z" transform="translate(-232.561 -174.058)" fill="#f9b8b2"/>
                            <path id="Path_4942" data-name="Path 4942" d="M244.714,194.518s4.77,2.209,6.037-3.707-.367-14.256-11.709-16.7Z" transform="translate(-225.97 -174.005)" fill="#f9b8b2"/>
                        </g>
                    </g>
                </g>
                <g id="Group_3967" data-name="Group 3967">
                    <path id="Path_4943" data-name="Path 4943" d="M229.3,121.075l20.2-20.053,9.069,6.785,28.366,29.664,4.413,3.141,4.155,6.374a2.993,2.993,0,0,1-1.581,4.482l-7.13,2.314c-5.537,7.2-14.6,17.726-25.566,21.1l-20.094,24.085s-52.37,1.991-53.869-35.292Z" transform="translate(-187.264 -101.022)" fill="#fff"/>
                    <path id="Path_4944" data-name="Path 4944" d="M226.627,144.1s8.3-2.122,17.03-15.083" transform="translate(-147.231 -72.547)" fill="none" stroke="#dcdcdc" stroke-miterlimit="10" stroke-width="0.704"/>
                </g>
            </g>
            <g id="Group_3975" data-name="Group 3975" transform="translate(307.001 0)">
                <g id="Group_3971" data-name="Group 3971" transform="translate(36.188)">
                    <path id="Path_4945" data-name="Path 4945" d="M242.457,83.771a13.229,13.229,0,1,0,18.159-4.5A13.228,13.228,0,0,0,242.457,83.771Z" transform="translate(-240.557 -77.367)" fill="#452c14"/>
                    <g id="Group_3970" data-name="Group 3970" transform="translate(0.825 14.087)">
                        <path id="Path_4946" data-name="Path 4946" d="M263.93,94.519s.313-8.082-11.314-8.217-11.65,9.119-11.65,9.119Z" transform="translate(-240.966 -82.368)" fill="#fc4c77"/>
                        <g id="Group_3969" data-name="Group 3969" transform="translate(8.875)">
                            <path id="Path_4947" data-name="Path 4947" d="M251.286,88.067s4.405-2.059,10.17.942c0,0-8.437,5.583-11.761.422Z" transform="translate(-240.963 -81.272)" fill="#ff6f92"/>
                            <path id="Path_4948" data-name="Path 4948" d="M253,90.116s.165-2.737-7.592-5.765c0,0-1.025,9.119,7.233,7.493h0" transform="translate(-245.366 -84.351)" fill="#ff6f92"/>
                            <path id="Path_4949" data-name="Path 4949" d="M248.978,88.309a1.819,1.819,0,1,0,2.182-1.366A1.82,1.82,0,0,0,248.978,88.309Z" transform="translate(-241.74 -81.762)" fill="#ff6f92"/>
                        </g>
                    </g>
                </g>
                <g id="Group_3972" data-name="Group 3972" transform="translate(25.12 21.713)">
                    <path id="Path_4950" data-name="Path 4950" d="M239.881,97.5c-7.3,10.111-6.454,25.63,3.659,32.934s23.119,1.176,32.958-6.489c10.434-8.131,5.026-24.229-5.085-31.532A22.587,22.587,0,0,0,239.881,97.5Z" transform="translate(-235.07 -88.132)" fill="#452c14"/>
                </g>
                <path id="Path_4951" data-name="Path 4951" d="M253.387,119.41l-9.609,7.538c-3.984,3.13-8.044,2.348-11.094-1.6h0c-2.6-3.37-6.4-5.888-3.381-8.889L249.2,102.693Z" transform="translate(-216.948 -51.61)" fill="#f9b8b2"/>
                <path id="Path_4952" data-name="Path 4952" d="M237.319,123.539,236.135,104.8l10.354,11.571Z" transform="translate(-208.867 -49.463)" fill="#ea948f"/>
                <path id="Path_4953" data-name="Path 4953" d="M241.305,131.78h0c6.11,5.92,15.751,6.021,20.685,1.249L273.56,121.7a16.06,16.06,0,0,0,.6-22.318h0c-5.985-6.614-17.181-8.344-23.71-2.435l-9.206,9.218C234.127,113.29,234.458,124.214,241.305,131.78Z" transform="translate(-208.966 -61.126)" fill="#f9b8b2"/>
                <g id="Group_3973" data-name="Group 3973" transform="translate(41.934 47.366)">
                    <path id="Path_4954" data-name="Path 4954" d="M248.778,108.929l-1.812,2.376-1.681-1.451" transform="translate(-241.495 -92.634)" fill="none" stroke="#1f120a" stroke-linecap="round" stroke-linejoin="round" stroke-width="0.552"/>
                    <path id="Path_4955" data-name="Path 4955" d="M249.33,102.7s2.9,2.277,1.876,3.433c0,0-.716.764-3.2-1.271s-2.933-2.779-2.477-3.7S248.061,101.531,249.33,102.7Z" transform="translate(-241.411 -100.85)" fill="#1f120a"/>
                    <path id="Path_4956" data-name="Path 4956" d="M254.188,107.68s-2-2.305-3.171-1.412c0,0-.775.621,1.017,2.594s2.662,2.307,3.389,1.9C256.241,110.3,255.227,108.68,254.188,107.68Z" transform="translate(-235.835 -95.55)" fill="#1f120a"/>
                    <path id="Path_4957" data-name="Path 4957" d="M249.415,108.968a1.387,1.387,0,1,0,1.963.018A1.388,1.388,0,0,0,249.415,108.968Z" transform="translate(-237.716 -92.998)" fill="#1f120a"/>
                    <path id="Path_4958" data-name="Path 4958" d="M245.268,104.8a1.466,1.466,0,1,0,2.074.02A1.468,1.468,0,0,0,245.268,104.8Z" transform="translate(-241.958 -97.259)" fill="#1f120a"/>
                    <line id="Line_172" data-name="Line 172" x1="1.191" y1="1.212" transform="translate(0 19.093)" fill="none" stroke="#1f120a" stroke-linecap="round" stroke-linejoin="round" stroke-width="0.552"/>
                </g>
                <line id="Line_173" data-name="Line 173" x2="14.476" y2="10.486" transform="translate(12.356 64.852)" fill="#f9b8b2"/>
                <path id="Path_4959" data-name="Path 4959" d="M241.957,109.2s7.239-8.829,13.048-8.223,10.7,13.738,17.984,14.478c0,0,2.681-9.054-3.213-15.644-4.918-5.5-17.175-9.383-17.175-9.383l-8.734.05-2.685,11.176Z" transform="translate(-203.733 -64.081)" fill="#452c14"/>
                <g id="Group_3974" data-name="Group 3974" transform="translate(27.02 35.751)">
                    <path id="Path_4960" data-name="Path 4960" d="M237.836,96.833a6.086,6.086,0,1,0,8.607.085A6.087,6.087,0,0,0,237.836,96.833Z" transform="translate(-236.012 -95.092)" fill="#f9b8b2"/>
                    <path id="Path_4961" data-name="Path 4961" d="M239.276,102.321s3.151-3.088-.3-5.615" transform="translate(-232.995 -93.45)" fill="none" stroke="#1f120a" stroke-linecap="round" stroke-linejoin="round" stroke-width="0.507"/>
                </g>
                <path id="Path_4962" data-name="Path 4962" d="M245.366,122.62a72.237,72.237,0,0,1,10.029,14.571s-17.33.892-32.779-32.8C222.616,104.386,230.5,108.721,245.366,122.62Z" transform="translate(-222.616 -49.888)" fill="#f9b8b2"/>
            </g>
            <g id="Group_3990" data-name="Group 3990" transform="translate(0 28.832)">
                <g id="Group_3984" data-name="Group 3984" transform="translate(0 17.314)">
                    <g id="Group_3978" data-name="Group 3978" transform="translate(103.111)">
                        <g id="Group_3977" data-name="Group 3977" transform="translate(98.077 21.525)">
                            <line id="Line_174" data-name="Line 174" x1="241.957" y1="248.636" fill="none" stroke="#2d2d2d" stroke-miterlimit="10" stroke-width="2.818"/>
                            <g id="Group_3976" data-name="Group 3976" transform="translate(193.793 246.331)">
                                <path id="Path_4963" data-name="Path 4963" d="M303.845,233.043H275.055a8.821,8.821,0,0,0-8.821,8.822h45.022C311.257,236.992,308.718,233.043,303.845,233.043Z" transform="translate(-266.235 -233.043)" fill="#2d2d2d"/>
                                <path id="Path_4964" data-name="Path 4964" d="M328.872,233.043H286.5a8.821,8.821,0,0,0-8.821,8.822h60.011A8.822,8.822,0,0,0,328.872,233.043Z" transform="translate(-254.591 -233.043)" fill="#515151"/>
                            </g>
                        </g>
                        <path id="Path_4965" data-name="Path 4965" d="M221.968,124.194s-40.377-47.533-71.766-8.667c-23.061,28.555-5.922,81.8,4.29,120.33,10.622,40.076,26.81,90.331-32.96,111.195" transform="translate(-121.532 -100.246)" fill="none" stroke="#2d2d2d" stroke-miterlimit="10" stroke-width="1.409"/>
                    </g>
                    <g id="Group_3983" data-name="Group 3983" transform="translate(0 217.311)">
                        <g id="Group_3981" data-name="Group 3981">
                            <path id="Path_4966" data-name="Path 4966" d="M119.17,221.783l8.2-2.711,5.123,12.232-8.72,3.031Z" transform="translate(-20.823 -196.707)" fill="#6b69b3"/>
                            <rect id="Rectangle_2182" data-name="Rectangle 2182" width="111.666" height="5.877" transform="translate(0 41.482)" fill="#fff"/>
                            <g id="Group_3980" data-name="Group 3980" transform="translate(1.728)">
                                <path id="Path_4967" data-name="Path 4967" d="M71.848,249.467a33.349,33.349,0,0,1,13.688-33.586c23.089-16.58,67.123-4.617,82.656,13.435,0,0,10.285,10.495,9.656,21.828Z" transform="translate(-71.268 -207.984)" fill="#454380"/>
                                <g id="Group_3979" data-name="Group 3979" clip-path="url(#clip-path)">
                                    <path id="Path_4968" data-name="Path 4968" d="M87.627,208.509s-13.357,17.917,14.008,19.22,59.613,0,59.613,0S126.393,201.343,87.627,208.509Z" transform="translate(-57.946 -208.704)" fill="#6b69b3"/>
                                </g>
                            </g>
                        </g>
                        <g id="Group_3982" data-name="Group 3982" transform="translate(9.471 28.542)">
                            <circle id="Ellipse_474" data-name="Ellipse 474" cx="15.615" cy="15.615" r="15.615" fill="#2d2d2d"/>
                            <path id="Path_4970" data-name="Path 4970" d="M132.19,237.71A11.007,11.007,0,1,1,121.183,226.7,11.006,11.006,0,0,1,132.19,237.71Z" transform="translate(-39.441 -217.487)" fill="#2d2d2d"/>
                        </g>
                    </g>
                </g>
                <g id="Group_3989" data-name="Group 3989" transform="translate(212.631)">
                    <g id="Group_3986" data-name="Group 3986" transform="translate(14.555)">
                        <path id="Path_4971" data-name="Path 4971" d="M223.373,127.805l-34.138-16.348a10.331,10.331,0,0,1-5.2-13.873h0a10.329,10.329,0,0,1,12.713-5.355l36.01,12.576Z" transform="translate(-183.045 -91.662)" fill="#f9b8b2"/>
                        <g id="Group_3985" data-name="Group 3985" transform="translate(36.937 6.859)">
                            <path id="Path_4972" data-name="Path 4972" d="M201.358,122.713l18.706,9.543a15.1,15.1,0,0,0,19.454-6.779h0c3.955-7.509.825-16.1-6.779-19.87l-20.83-10.545Z" transform="translate(-201.358 -95.062)" fill="#fff"/>
                            <line id="Line_175" data-name="Line 175" x2="13.177" y2="5.906" transform="translate(11.922 33.779)" fill="none" stroke="#dcdcdc" stroke-miterlimit="10" stroke-width="0.704"/>
                        </g>
                    </g>
                    <g id="Group_3988" data-name="Group 3988" transform="translate(0 0.821)">
                        <path id="Path_4973" data-name="Path 4973" d="M198.017,92.376h0a9.559,9.559,0,0,0-11.943,9.067l-6.035,48.4,12.217,2.566,12.84-49.417A9.561,9.561,0,0,0,198.017,92.376Z" transform="translate(-171.548 -92.069)" fill="#f9b8b2"/>
                        <g id="Group_3987" data-name="Group 3987" transform="translate(0 53.244)">
                            <path id="Path_4974" data-name="Path 4974" d="M176.351,133.429a11.529,11.529,0,1,1,14.426,7.6A11.528,11.528,0,0,1,176.351,133.429Z" transform="translate(-175.829 -118.451)" fill="#f9b8b2"/>
                            <path id="Path_4975" data-name="Path 4975" d="M193.6,135.137s5.256-.01,3.913-5.908-6.342-12.772-17.657-10.212Z" transform="translate(-171.737 -118.466)" fill="#f9b8b2"/>
                        </g>
                    </g>
                </g>
            </g>
        </g>
    </g>
</svg>
