<svg xmlns="http://www.w3.org/2000/svg" xmlns:xlink="http://www.w3.org/1999/xlink" width="272.955" height="223.556" viewBox="0 0 272.955 223.556">
    <defs>
        <clipPath id="clip-path">
            <rect id="Rectangle_2228" data-name="Rectangle 2228" width="272.955" height="223.556" rx="51" transform="translate(1432 1732.438)" fill="#dfdeff"/>
        </clipPath>
    </defs>
    <g id="Mask_Group_64" data-name="Mask Group 64" transform="translate(-1432 -1732.438)" clip-path="url(#clip-path)">
        <g id="Group_4190" data-name="Group 4190" transform="translate(1196.658 1595.19)">
            <g id="Group_4180" data-name="Group 4180" transform="translate(92.997 131.819)">
                <path id="Path_5223" data-name="Path 5223" d="M527.638,359.547c3.523-6.8,12.385-28.224,14.173-53.384C545.167,259,521.087,222,486.33,203.5c-14.7-7.851-29.591-10.093-45.858-8.122-15.811,1.909-28.937,7.166-38.209,6.5-18.3-1.309-26.142-36.2-66.464-56.063-29.579-14.566-75.305-17.944-107.187-9.274-33.034,8.993-56.388,31.714-43.911,75.684a154.954,154.954,0,0,0,12.941,30.764c29.872,55.31-48.127,39.174-56.038,93.443-1.2,8.258-.589,15,.762,23.116Z" transform="translate(-140.961 -131.819)" fill="#e5f2f3"/>
                <path id="Path_5224" data-name="Path 5224" d="M290.063,136.544c-33.008,8.986-56.35,31.677-43.941,75.578a6.1,6.1,0,0,0,2.2-.642,32.771,32.771,0,0,0,11.157-9.595,63.846,63.846,0,0,0-.654-11.869c.648,1.671,3.188,3.973,5.038,5.493,3.93-6.132,6.926-11.05,12.455-9.8,10.252,2.311,23.006-.839,26.6-11.319a21.79,21.79,0,0,0-6.409-6.679,21.661,21.661,0,0,1,7.953,2.623c4.541-8.615,15.611-11.078,15.611-11.078q.763-.214,1.479-.477a54.139,54.139,0,0,0-1.6-12.1,15.048,15.048,0,0,1,7.32,8.729c6.97-6.127,7.812-17.848,7.315-23.5C318.793,131.435,303.245,132.958,290.063,136.544Z" transform="translate(-202.411 -131.823)" fill="#c1e0e4"/>
                <path id="Path_5225" data-name="Path 5225" d="M944.657,299.306c-14.309-7.644-28.8-9.97-44.57-8.268v85.026l44.63-76.726Z" transform="translate(-599.287 -227.631)" fill="#eff"/>
                <path id="Path_5226" data-name="Path 5226" d="M612.879,452.447h41.139l60.3-108.434-.8-46.679c-5.453,1.153-10.473,2.436-14.994,3.343Z" transform="translate(-425.887 -231.749)" fill="#e7f7f7"/>
                <path id="Path_5227" data-name="Path 5227" d="M921.9,547.318c.678,10.112,10.854,14.641,10.854,14.641h67.552c.366-.794.811-1.78,1.308-2.939,5.725-13.439,18.716-50.435,7.774-87.89a65.412,65.412,0,0,0-14.378,8.864,45.252,45.252,0,0,1,7.716,9.245c-5.311-3.487-9.637-4.486-12.659-4.6a41,41,0,0,0-9.152,15.265c-7.8,23.951-23.4,21.473-37.309,25.425q-1.136.323-2.224.68a69.246,69.246,0,0,1,8.826,8.683c-8.651-3.937-14.958-4.371-18.73-4.041a24.813,24.813,0,0,0-6.073,5.482c4.946-.886,12.777.139,14.572.293-5.916-.443-14.271,2.959-17.2,4.442a15.831,15.831,0,0,0-.88,6.453Z" transform="translate(-612.435 -336.681)" fill="#c7dfe2"/>
                <path id="Path_5228" data-name="Path 5228" d="M662.385,359.465h-90.53V200.789q-3.007.393-5.879.911V359.465h-200.1V140.607q-2.559.572-5.018,1.239-.432.118-.861.239V364.853H659.882C660.376,363.927,661.312,361.973,662.385,359.465Z" transform="translate(-273.205 -137.126)" fill="#c5dadd"/>
                <g id="Group_4177" data-name="Group 4177" transform="translate(376.62 180.724)">
                    <path id="Path_5229" data-name="Path 5229" d="M1146.511,587.917q-.17,1.434-.367,2.841c-1.4-1.068-2.617-1.886-2.617-1.886a9.488,9.488,0,0,1,2.984-.955Z" transform="translate(-1122.888 -587.917)" fill="#599dad"/>
                    <path id="Path_5230" data-name="Path 5230" d="M1096.531,598.985s10.46,2.082,11.8,1.019-8.593-3.527-8.593-3.527c2.077-2.574,10.837-5.732,10.837-5.732s1.862,2.024,3.812,3.81q-.433,2.785-.949,5.448c-.061.321-.125.642-.188.958-1.1,5.5-2.426,10.557-3.788,15.026-3.468.269-7.76-1.5-7.76-1.5,2.84-1.528,5.5-6.66,4.889-7.555s-6.263,5.013-7.386,5.7-4.5.491-7.172-4.068S1096.531,598.985,1096.531,598.985Z" transform="translate(-1091.439 -589.621)" fill="#599dad"/>
                </g>
                <g id="Group_4179" data-name="Group 4179" transform="translate(340.501 112.414)">
                    <path id="Path_5231" data-name="Path 5231" d="M1006.4,443.473c3.043.762,22.572.508,22.067,3.044s-13.7,6.6-21.052,4.312c0,0,8.113,20.037,18.768,19.024s13.951-7.609,20.543-8.118,11.413,1.269,8.113,3.044-14.459.583-19.784,5.11-9.637,7.319.254,9.348c7.114,1.458,18.292,1.214,25.333-1.87a121.962,121.962,0,0,0-.269-20.989q-.211-2.079-.505-4.176a103.609,103.609,0,0,0-3.136-14.646,96.773,96.773,0,0,0-6.557-16.634c-5.614-2.087-11.769-3.921-15.371-3.573,0,0,12.427,21.052,8.369,20.544s-18.008-21.814-18.008-21.814-20.544-3.8-23.84,8.371S1003.36,442.708,1006.4,443.473Z" transform="translate(-1000.287 -415.516)" fill="#6bb7bf"/>
                    <g id="Group_4178" data-name="Group 4178" transform="translate(10.489 12.757)">
                        <path id="Path_5232" data-name="Path 5232" d="M1026.753,447.711c28.01,11.338,42.38,20.849,49.6,28.1q-.211-2.079-.5-4.176C1059.054,458.376,1028.31,448.222,1026.753,447.711Z" transform="translate(-1026.753 -447.711)" fill="#599dad"/>
                    </g>
                </g>
                <path id="Path_5233" data-name="Path 5233" d="M964.867,634.752c-.017,0-.045,0-.079-.007Z" transform="translate(-638.353 -435.466)" fill="#cfe1e5"/>
                <path id="Path_5234" data-name="Path 5234" d="M964.279,634.7l-.208-.018A1.429,1.429,0,0,0,964.279,634.7Z" transform="translate(-637.917 -435.428)" fill="#cfe1e5"/>
                <path id="Path_5235" data-name="Path 5235" d="M433.352,135.192l-54.8,89.71v53.657l82.209-137.816a167.077,167.077,0,0,0-27.406-5.55Z" transform="translate(-284.407 -133.856)" fill="#eff"/>
            </g>
            <g id="Group_4181" data-name="Group 4181" transform="translate(168.287 210.857)">
                <path id="Rectangle_2219" data-name="Rectangle 2219" d="M15.941,0h0A65.267,65.267,0,0,1,81.208,65.267v37.021H0V15.941A15.941,15.941,0,0,1,15.941,0Z" transform="translate(124.44 0)" fill="#b2cbfd"/>
                <path id="Rectangle_2220" data-name="Rectangle 2220" d="M0,0H81.209V37.021a65.267,65.267,0,0,1-65.267,65.267h0A15.941,15.941,0,0,1,0,86.346Z" transform="translate(124.44 102.289) rotate(180)" fill="#b2cbfd"/>
                <path id="Path_5236" data-name="Path 5236" d="M386.009,384.242h0A13.357,13.357,0,0,1,399.366,397.6v65.773a13.358,13.358,0,0,1-13.357,13.357h0a13.357,13.357,0,0,1-13.357-13.357V397.6A13.357,13.357,0,0,1,386.009,384.242Z" transform="translate(-356.135 -363.259)" fill="#4f7bba"/>
                <path id="Path_5237" data-name="Path 5237" d="M863.261,384.242h0A13.358,13.358,0,0,1,876.619,397.6v65.773a13.358,13.358,0,0,1-13.358,13.357h0A13.358,13.358,0,0,1,849.9,463.372V397.6A13.357,13.357,0,0,1,863.261,384.242Z" transform="translate(-644.279 -363.259)" fill="#4f7bba"/>
                <rect id="Rectangle_2221" data-name="Rectangle 2221" width="162.417" height="47.658" transform="translate(43.232 102.289)" fill="#466aa5"/>
                <rect id="Rectangle_2222" data-name="Rectangle 2222" width="81.209" height="21.017" rx="6.907" transform="translate(43.232 91.78)" fill="#7a97f3"/>
                <rect id="Rectangle_2223" data-name="Rectangle 2223" width="81.209" height="21.017" rx="6.907" transform="translate(124.44 91.78)" fill="#7a97f3"/>
                <path id="Path_5238" data-name="Path 5238" d="M330.969,522.564a21.616,21.616,0,1,1,43.232,0v61.1H347.637V543.61a21.624,21.624,0,0,1-16.669-21.046Z" transform="translate(-330.969 -433.721)" fill="#7a97f3"/>
                <path id="Path_5239" data-name="Path 5239" d="M893.195,522.563a21.616,21.616,0,1,0-43.231,0v61.1h26.563V543.61A21.624,21.624,0,0,0,893.195,522.563Z" transform="translate(-644.316 -433.721)" fill="#7a97f3"/>
                <circle id="Ellipse_493" data-name="Ellipse 493" cx="4.344" cy="4.344" r="4.344" transform="translate(221.979 85.458)" fill="#4f7bba"/>
                <circle id="Ellipse_494" data-name="Ellipse 494" cx="4.344" cy="4.344" r="4.344" transform="translate(16.508 85.458)" fill="#4f7bba"/>
                <path id="Path_5240" data-name="Path 5240" d="M902.927,552.062s2.793-4.52,6.739-4.432c0,0-4.3-1.243-8.42,3.5l.754,2.879c3.317-1.214,2.9,6.253,2.9,6.253S907.48,549.995,902.927,552.062Z" transform="translate(-675.275 -461.816)" fill="#4f7bba"/>
                <path id="Path_5241" data-name="Path 5241" d="M900.417,529.874s-3.02,6.295-.148,10.949-1.882.7-1.882.7S895.961,536.567,900.417,529.874Z" transform="translate(-673.154 -451.184)" fill="#4f7bba"/>
                <path id="Path_5242" data-name="Path 5242" d="M361.742,561.822s.589-4.253,7.387-3.93,0,2.117,0,2.117a8.042,8.042,0,0,0-7.387,1.814Z" transform="translate(-349.549 -468.09)" fill="#4f7bba"/>
            </g>
            <g id="Group_4184" data-name="Group 4184" transform="translate(150.708 243.79)">
                <path id="Path_5243" data-name="Path 5243" d="M306.426,480.612s6.491,4.827,7.758,4.535-4.745-5.211-4.745-5.211c2.262-1.087,9.291-.406,9.291-.406s2.342,7.552,3.5,6.956-2.414-6.581-2.414-6.581c2.519-.152,5.608,1.718,5.608,1.718,4.229,3.34-.278,8.6-.278,8.6a12.858,12.858,0,0,0,3.539,4.967,11.158,11.158,0,0,1,4.079,7.861l-.692.065s-1.1-4.7-3.092-6.916c-.078-.081-.19-.2-.327-.335-.327-.3-.554-.529-.707-.7-.993-.954-2.364-2.168-3.025-2.286a1.265,1.265,0,0,0,.028-.332c-.008.107-.018.216-.028.332-.226,2.658-5.383,4.979-8.554,5.456s-2.192-.826-1.1-2.76,4.552-2.8,5.341-3.689-.843-.892-2.754-.019-2.173,3.2-5.239,4.669-7.679-3.619-7.679-3.619c2.443-.124,5.932-2.778,5.806-3.59s-5.922,1.4-6.914,1.5-3.246-1.126-3.595-5.118S306.426,480.612,306.426,480.612Z" transform="translate(-294.824 -453.596)" fill="#599dad"/>
                <g id="Group_4182" data-name="Group 4182" transform="translate(41.364 11.451)">
                    <path id="Path_5244" data-name="Path 5244" d="M395.71,461.859s-7.17-4.015-3.824-9.465c0,0,2.677-3.346,5.545-4.207,0,0-1.53,8.126,0,8.318s1.051-9.178,1.051-9.178,7.552-3.633,10.516-3.346c0,0-4.685,7.935-3.155,7.744s6.788-8.222,6.788-8.222,7.744-1.434,8.986,3.156-.765,6.883-1.912,7.169-8.505.192-8.318,1.148,5.163,2.486,7.935,1.625c0,0-3.059,7.552-7.075,7.17s-5.258-2.868-7.744-3.059-4.3.478-3.059,1.148,5.449.219,7.459,1.926,3.633,2.758-.1,3.523-10.42.287-11.758-2.581Z" transform="translate(-390.996 -443.291)" fill="#79c8cc"/>
                    <path id="Path_5245" data-name="Path 5245" d="M395.2,476.151a15.256,15.256,0,0,0,1.912-6.979c2.295-7.262,22.371-13.766,22.371-13.766-25.525,10.324-21.032,16.635-21.032,16.635-.688.4-1.719,2.314-2.435,3.782-.1.25-.262.6-.5,1.065h0c-.1.212-.175.386-.228.507-1.314,3.288-.618,8.967-.618,8.967l-.8.214A13.24,13.24,0,0,1,395.2,476.151Z" transform="translate(-392.4 -450.608)" fill="#6bb7bf"/>
                </g>
                <g id="Group_4183" data-name="Group 4183" transform="translate(0 0)">
                    <path id="Path_5246" data-name="Path 5246" d="M321.282,438.879s9.451-5.293,5.038-12.475c0,0-3.528-4.411-7.309-5.545,0,0,2.016,10.712,0,10.964s-1.386-12.1-1.386-12.1-9.955-4.788-13.862-4.41c0,0,6.175,10.46,4.158,10.207s-8.947-10.838-8.947-10.838-10.206-1.89-11.846,4.158,1.008,9.073,2.52,9.451,11.216.253,10.964,1.513-6.8,3.276-10.46,2.142c0,0,4.032,9.956,9.325,9.451s6.931-3.781,10.206-4.033,5.67.631,4.032,1.513-7.183.289-9.83,2.539-4.789,3.636.126,4.645,13.736.378,15.5-3.4Z" transform="translate(-286.611 -414.403)" fill="#6bb7bf"/>
                    <path id="Path_5247" data-name="Path 5247" d="M299.685,430.373s26.464,8.571,29.488,18.147a20.1,20.1,0,0,0,2.52,9.2,17.451,17.451,0,0,1,1.755,13.74l-1.047-.282s.916-7.485-.815-11.82c-.071-.16-.173-.389-.3-.669-.317-.618-.529-1.074-.663-1.4-.943-1.935-2.3-4.458-3.21-4.986C327.411,452.3,333.332,443.989,299.685,430.373Z" transform="translate(-294.502 -424.046)" fill="#599dad"/>
                </g>
                <path id="Path_5248" data-name="Path 5248" d="M346.7,547.147a18.516,18.516,0,0,1-18.516-18.516h37.031A18.516,18.516,0,0,1,346.7,547.147Z" transform="translate(-311.709 -483.369)" fill="#f1a34f"/>
                <path id="Path_5249" data-name="Path 5249" d="M363.412,547a18.524,18.524,0,0,0,20.813-18.372h-4.6A18.516,18.516,0,0,1,363.411,547Z" transform="translate(-332.977 -483.369)" fill="#ffb973"/>
                <path id="Path_5250" data-name="Path 5250" d="M329.824,571.968h32.971a2.284,2.284,0,0,1,2.284,2.284H327.54A2.284,2.284,0,0,1,329.824,571.968Z" transform="translate(-311.319 -509.533)" fill="#f1a34f"/>
                <rect id="Rectangle_2224" data-name="Rectangle 2224" width="38.058" height="0.568" transform="translate(16.055 45.263)" fill="#d86713"/>
            </g>
            <g id="Group_4187" data-name="Group 4187" transform="translate(109.444 308.52)">
                <g id="Group_4185" data-name="Group 4185" transform="translate(98.615 2.365)">
                    <path id="Path_5251" data-name="Path 5251" d="M454.049,632.84a1.541,1.541,0,0,1-1.4-.9l-21.164-46.032a1.541,1.541,0,1,1,2.8-1.287l21.161,46.033a1.541,1.541,0,0,1-1.4,2.185Z" transform="translate(-431.343 -583.724)" fill="#233862"/>
                    <path id="Path_5252" data-name="Path 5252" d="M578.485,632.84a1.541,1.541,0,0,1-1.4-.9l-21.161-46.032a1.541,1.541,0,1,1,2.8-1.287l21.161,46.033a1.541,1.541,0,0,1-1.4,2.185Z" transform="translate(-506.472 -583.724)" fill="#233862"/>
                    <path id="Path_5253" data-name="Path 5253" d="M528.77,688.749H479.747a1.541,1.541,0,0,1,0-3.082H528.77a1.541,1.541,0,1,1,0,3.082Z" transform="translate(-459.638 -645.275)" fill="#233862"/>
                </g>
                <g id="Group_4186" data-name="Group 4186" transform="translate(0 2.365)">
                    <path id="Path_5254" data-name="Path 5254" d="M308.444,632.84a1.541,1.541,0,0,1-1.4-2.185l21.161-46.033a1.541,1.541,0,1,1,2.8,1.288l-21.161,46.033a1.541,1.541,0,0,1-1.4.9Z" transform="translate(-257.597 -583.724)" fill="#2b478b"/>
                    <path id="Path_5255" data-name="Path 5255" d="M184.007,632.84a1.541,1.541,0,0,1-1.4-2.185l21.161-46.033a1.541,1.541,0,1,1,2.8,1.287l-21.161,46.033a1.541,1.541,0,0,1-1.4.9Z" transform="translate(-182.467 -583.724)" fill="#2b478b"/>
                    <path id="Path_5256" data-name="Path 5256" d="M240.293,688.749H191.267a1.541,1.541,0,0,1,0-3.082h49.026a1.541,1.541,0,1,1,0,3.082Z" transform="translate(-186.85 -645.275)" fill="#2b478b"/>
                </g>
                <path id="Path_5257" data-name="Path 5257" d="M477.89,582.281H425.912a2.259,2.259,0,0,1-2.259-2.26h0a2.259,2.259,0,0,1,2.259-2.26h51.978a2.26,2.26,0,0,1,2.26,2.26h0A2.26,2.26,0,0,1,477.89,582.281Z" transform="translate(-328.085 -577.761)" fill="#aa3e39"/>
                <path id="Path_5258" data-name="Path 5258" d="M311.325,582.281H212.466a2.26,2.26,0,0,1-2.26-2.26h0a2.26,2.26,0,0,1,2.26-2.26h98.859a2.26,2.26,0,0,1,2.26,2.26h0A2.26,2.26,0,0,1,311.325,582.281Z" transform="translate(-199.216 -577.761)" fill="#b84c42"/>
            </g>
            <path id="Path_5259" data-name="Path 5259" d="M799.454,341.117s9.93,2.776,9.585,9.487-15.547,31.607-17.477,33.764c-3.513,3.926-22.289,16.205-22.289,16.205l-2.654-2.323s14.837-17.344,16.926-18.843C786.826,377.051,795.633,342.79,799.454,341.117Z" transform="translate(-425.708 -126.365)" fill="#ffb27d"/>
            <path id="Path_5260" data-name="Path 5260" d="M756.42,485.3a20.533,20.533,0,0,1-4.031.879,4.005,4.005,0,0,0-2.644,1.42c-.051.289,2.266-.294,2.311.131s-1.009,1.369-2.023,1.37.738,2.022,1.562,2.845c.212.212.936,1.068,3.467.142s4.26-4.894,4.26-4.894Z" transform="translate(-415.507 -213.418)" fill="#ffb27d"/>
            <path id="Path_5261" data-name="Path 5261" d="M820.833,288.35c3.823-1.193,7.786-7.207,7.67-8.418a9.054,9.054,0,0,0-.294-1.112l-15.62-9.866s3.533-10.2,9.137-10.748c.491-2.02,2.3-6.281,8.742-5.217a9.94,9.94,0,0,0-4.187,1.43s5.858-2.256,10.875,3.519-.584,17.262.806,19.847,8.2,4.177,6.133,11.456-24.593,13.11-24.255,19.469c0,0-5.833-12.584-.07-17.529a10.293,10.293,0,0,0-3.507,4.916C816.254,296.1,816.509,289.7,820.833,288.35Z" transform="translate(-453.461 -73.056)" fill="#2c3a64"/>
            <path id="Path_5262" data-name="Path 5262" d="M837.307,550.4l3.729-.548a44.12,44.12,0,0,0,14.417-28.579,33.3,33.3,0,0,0,.089-5.753,1,1,0,0,1,.131-.635l0,0c.4-.616,1.4-2.159,2.754-4.352,1.335-2.159,3.617-6.246,6.128-10.831,4.525-8.256,9.792-18.13,11.6-21.275,5.758-10.024,2.982-16.764,2.982-16.764s-16.061-1.588-20.461-5.438l-1.585,2.443s-3.48,15.405-3.315,15.477q-.258.785-.524,1.6a267.519,267.519,0,0,0-7.628,27.7c-.968,4.855-1.48,9.084-1.2,11.966a21.047,21.047,0,0,1-.285,4.384C842.587,530.842,837.307,550.4,837.307,550.4Z" transform="translate(-468.385 -195.859)" fill="#bc3f3f"/>
            <path id="Path_5263" data-name="Path 5263" d="M817.548,692.619h15.571a8.55,8.55,0,0,0-.44-4.173c-.779-1.728-1.89-1.784-.142-4.491-.989,1.019-4.17,1.439-6.421,1.137-.276.447-1.778,3.447-2.7,4.109C822.4,689.93,817.862,689.668,817.548,692.619Z" transform="translate(-456.459 -333.353)" fill="#233862"/>
            <path id="Path_5264" data-name="Path 5264" d="M877.565,475.739c1.359,7.5,4.572,19.984,11.3,23.957,4.525-8.256,9.792-18.13,11.6-21.275,5.757-10.024,2.982-16.764,2.982-16.764s-16.061-1.588-20.461-5.438l-1.585,2.443s-3.48,15.405-3.315,15.477Q877.833,474.921,877.565,475.739Z" transform="translate(-492.693 -195.858)" fill="#a53d38"/>
            <path id="Path_5265" data-name="Path 5265" d="M905.043,457.864l-.052-2.912c5.8.732,20-6.935,20-6.935s6.07,4.037,6.9,15.566c.406,5.627,2.972,29.425,3.256,36.533.1,2.575.137,4.413.149,5.148v.007a1.007,1.007,0,0,0,.247.6,33.307,33.307,0,0,1,3.144,4.819c8.853,16.472,4.223,38.853,4.223,38.853l-2.056-.523s-7.485-23.2-12.377-33.237a21.014,21.014,0,0,0-2.216-3.795c-1.839-2.234-3.781-6.028-5.692-10.594a277.314,277.314,0,0,1-9.625-28.846C910.768,472.585,905.043,457.864,905.043,457.864Z" transform="translate(-509.25 -190.909)" fill="#bc3f3f"/>
            <path id="Path_5266" data-name="Path 5266" d="M842.384,341.5c9.731.055,8.488-15.906,7.9-15.8a11.4,11.4,0,0,1-6.078-7.4l-.91.764-6.842,3.636s.856,2.242,1.513,4.4c.512,1.685.9,3.319.667,3.795C838.092,331.14,839.793,341.487,842.384,341.5Z" transform="translate(-467.873 -112.589)" fill="#ffb27d"/>
            <path id="Path_5267" data-name="Path 5267" d="M836.455,323.868s.857,2.24,1.513,4.4c4.037-1.343,5.069-5.706,5.33-8.032Z" transform="translate(-467.872 -113.755)" fill="#ed985f"/>
            <path id="Path_5268" data-name="Path 5268" d="M821.6,306.771s10.708-3.842,8.213-10.474-2.794-11.595-9.737-9.421-7.311,5.2-7.017,7.617S818.751,307.6,821.6,306.771Z" transform="translate(-453.707 -93.304)" fill="#ffb27d"/>
            <path id="Path_5269" data-name="Path 5269" d="M810.053,285.841c.892-2.617,2.3-2.647,3.224-2.31,4.61-5.394,12.381-5.2,12.381-5.2,2.508,4.488,4.728,9.035,4.728,9.035s-1.487,1.931-6.393,2.469a8.123,8.123,0,0,1-4.567-1.133,26.544,26.544,0,0,0,6.244,3.606c-6.274-.453-11.224-7.072-11.735-7.777a8.92,8.92,0,0,0-1.153,3.969c.107,1.888,1.178,5.453.122,5.718C812.906,294.22,808.712,289.763,810.053,285.841Z" transform="translate(-451.772 -88.457)" fill="#2c3a64"/>
            <path id="Path_5270" data-name="Path 5270" d="M969.45,692.446h15.571a8.55,8.55,0,0,0-.44-4.173c-.779-1.728-2-2.512-1.708-4.6a5.607,5.607,0,0,1-4.851,1.857,17.1,17.1,0,0,1-2.7,3.5C974.3,689.757,969.763,689.5,969.45,692.446Z" transform="translate(-548.169 -333.183)" fill="#233862"/>
            <path id="Path_5271" data-name="Path 5271" d="M848.8,336.475a25.552,25.552,0,0,0-12.235,3.966l-2.109,14.538c-.687,5.225-.741,9.417,1.4,11.389a15.875,15.875,0,0,0,6.76,3.606c4.681,1.151,5.518.529,7.2,2.217.613.616.051-.3.005.236-.262,3.031,4.1,17.37,4.1,17.37,22.834,3.748,30.365-8.191,30.365-8.191C875.953,354.9,848.8,336.475,848.8,336.475Z" transform="translate(-466.413 -123.563)" fill="#2b478b"/>
            <path id="Path_5272" data-name="Path 5272" d="M846.973,384.352a18.631,18.631,0,0,0,9.762,2.039,43.173,43.173,0,0,0,4.365-23.921s-11.936,2.189-10.391,9.2C852.07,377.829,848.1,382.635,846.973,384.352Z" transform="translate(-474.223 -139.257)" fill="#233862"/>
            <path id="Path_5273" data-name="Path 5273" d="M705.524,572.659l-2.519-2.3L776.5,489.4a1.7,1.7,0,0,1,2.41-.114h0a1.7,1.7,0,0,1,.114,2.4Z" transform="translate(-387.3 -215.558)" fill="#233862"/>
            <path id="Path_5274" data-name="Path 5274" d="M850.139,352.718s9.832-3.106,13.212,2.7,4.266,34.965,3.831,37.826c-.793,5.209-9.8,25.756-9.8,25.756l-3.493-.493s2.938-22.634,3.867-25.032C859.214,389.71,847.856,356.208,850.139,352.718Z" transform="translate(-475.95 -132.868)" fill="#ffb27d"/>
            <path id="Path_5275" data-name="Path 5275" d="M861.035,355.52c.035.15-7.493,6.562-14.292,6.117,0,0-6.713-12.378.256-14.533s11.818-1.745,13.353,1.374A12.285,12.285,0,0,1,861.035,355.52Z" transform="translate(-472.327 -129.167)" fill="#2b478b"/>
            <path id="Path_5276" data-name="Path 5276" d="M852.609,520.014a20.428,20.428,0,0,1-2.9,2.94,4.007,4.007,0,0,0-1.439,2.634c.116.27,1.738-1.485,2.007-1.153s.254,4.13-.594,4.685-2.13,2.028-1.963,2.272,5.6-2.1,7.213-4.26,1.129-7.119,1.129-7.119Z" transform="translate(-474.673 -234.374)" fill="#ffb27d"/>
            <path id="Path_5277" data-name="Path 5277" d="M750.079,490.113a.9.9,0,0,1-.62-.247l-17.153-16.244a.9.9,0,0,1,1.243-1.308L750.7,488.556a.9.9,0,0,1-.62,1.557Z" transform="translate(-404.823 -205.426)" fill="#233862"/>
            <path id="Path_5278" data-name="Path 5278" d="M751.392,495.9s3.131.022,4.187-.866-3.1-3.543-4.558-2.974-1.855.861-1.19,1.925a11.2,11.2,0,0,0,1.561,1.915Z" transform="translate(-415.387 -217.451)" fill="#ffb27d"/>
            <path id="Path_5279" data-name="Path 5279" d="M750.359,488.619a4.311,4.311,0,0,0-1.59,1.332c-.4.739,3.2,0,3.2,0Z" transform="translate(-414.911 -215.422)" fill="#ffb27d"/>
            <path id="Path_5280" data-name="Path 5280" d="M759.7,495.7s1.791-.954,1.265-2.083a3.674,3.674,0,0,0-1.655-1.636,5.6,5.6,0,0,1,1.939,1.13C762.15,494.017,762.418,495.332,759.7,495.7Z" transform="translate(-421.298 -217.451)" fill="#ed985f"/>
            <g id="Group_4188" data-name="Group 4188" transform="translate(310.002 250.908)">
                <rect id="Rectangle_2225" data-name="Rectangle 2225" transform="translate(0 2.572)" fill="#f1a34f"/>
                <path id="Path_5281" data-name="Path 5281" d="M713.122,451.648h0a2.982,2.982,0,0,1-4.217.014l-12.938-12.851a2.982,2.982,0,0,1-.014-4.217h0a2.982,2.982,0,0,1,4.217-.014l12.936,12.848a2.982,2.982,0,0,1,.016,4.221Z" transform="translate(-692.522 -433.181)" fill="#f1a34f"/>
                <path id="Path_5282" data-name="Path 5282" d="M694.775,434.194s-.442.446-.45.6.219.006.219.006l-.327.634.212.21-.344.678s.16.368.249.383.277.281.25.353c-.127.34-.327.694-.171.7s.458.247.626.262.2.21.19.353a.7.7,0,0,1-.027.2,1,1,0,0,1,.412.114c.105.09.144.131.144.131s.287.345.332.406.065.279.332.179a2.416,2.416,0,0,0,.436-.212l.278-.174.03-.468c.307-.143.187-.082.187-.082l.12-.061a2.884,2.884,0,0,1,.375-.182,1.629,1.629,0,0,0,.645-.71c.075-.211.1-.49.367-.626s.933-.545.933-.545l.1-.024s.223-.694.254-.724a1.422,1.422,0,0,1,.345-.423c.353-.357.247-.385.393-.393s.822.366.2-.241-.506-.609-.763-.667-.5-.224-.528-.375-.054-.233-.054-.233.044-.3-.393-.469a2.125,2.125,0,0,0-.878-.131c-.045,0-.353.189-.534-.051s-1-.276-1.025-.253-.226-.09-.3.152l-.045.045s.542-.168-.03.2-.224.407-.533.371-.393-.24-.49-.065a6.311,6.311,0,0,0-.547.928C694.984,434.057,694.775,434.194,694.775,434.194Z" transform="translate(-691.915 -432.356)" fill="#f1a34f"/>
                <path id="Path_5283" data-name="Path 5283" d="M734.4,472.507s.443-.446.449-.6-.218-.007-.218-.007l.327-.634-.212-.21.344-.679s-.16-.369-.25-.383-.276-.281-.249-.353c.127-.34.327-.694.171-.7s-.458-.247-.625-.262-.2-.21-.19-.353a.693.693,0,0,1,.027-.2,1,1,0,0,1-.412-.114c-.106-.09-.144-.131-.144-.131s-.287-.345-.332-.406-.065-.278-.332-.179a2.4,2.4,0,0,0-.436.212l-.278.174-.03.468c-.307.143-.187.082-.187.082l-.12.061a2.916,2.916,0,0,1-.376.182,1.624,1.624,0,0,0-.645.71c-.075.211-.1.49-.367.626s-.933.545-.933.545l-.1.024s-.224.694-.254.724a1.424,1.424,0,0,1-.345.423c-.352.357-.247.385-.393.393s-.822-.366-.2.242.506.609.762.667.5.224.529.375.054.234.054.234-.045.3.389.469a2.123,2.123,0,0,0,.878.131c.045,0,.353-.189.535.051s1,.275,1.025.253.226.09.3-.152l.045-.045s-.542.167.029-.2.224-.408.533-.371.393.239.49.065a6.3,6.3,0,0,0,.546-.928C734.188,472.645,734.4,472.507,734.4,472.507Z" transform="translate(-712.296 -453.444)" fill="#f1a34f"/>
                <path id="Path_5284" data-name="Path 5284" d="M716.491,454.356s.442-.446.45-.6-.219-.006-.219-.006l.327-.634-.212-.21.345-.678s-.16-.369-.25-.383.626.474.654.4c.127-.34-.574-1.448-.732-1.456s-.458-.247-.626-.262-.2-.21-.19-.354a.7.7,0,0,1,.027-.2,1,1,0,0,1-.411-.115c-.106-.09-.144-.127-.144-.127s-.287-.345-.333-.406-.065-.279-.332-.179a2.415,2.415,0,0,0-.436.211l-.278.174L714.1,450c-.307.143-.187.082-.187.082l-.12.061a2.866,2.866,0,0,1-.376.182,1.628,1.628,0,0,0-.644.71c-.075.211-.1.49-.367.626s-.933.545-.933.545l-.1.024s-.224.694-.254.724.008.065-.345.423-.247.385-.393.393-.822-.366-.2.241.507.609.763.667.5.224.528.375.054.234.054.234-.045.3.393.47.7.241.681.281c-.106.224.523.641.706.881s1.028-.709,1.05-.731.226.089.3-.152l.045-.046s-.542.167.029-.2.224-.407.533-.37.393.24.49.065a6.434,6.434,0,0,0,.547-.928C716.275,454.494,716.491,454.356,716.491,454.356Z" transform="translate(-701.484 -442.484)" fill="#f1a34f"/>
                <path id="Path_5285" data-name="Path 5285" d="M700.285,442.948s-.567.608.131.874.654-.1.828.5a3.6,3.6,0,0,1,.173.753s-.38.423.383.38.458-.323.785.2.319.747.634.955.222.262.691.593a1.359,1.359,0,0,0,.951.292s.262.262.4-.041a5.509,5.509,0,0,0,.056-1.265,1.84,1.84,0,0,1,.1-.381l.762-.284a1.3,1.3,0,0,0,.321-.041l.12-.04s.1-.181.14-.262-.077-.124-.077-.124-.147-.818-.027-.9-.322.041.119-.08.822-.425.963-.405.16-.041.221.02l.061.06.319-.523c-.082-.321-.845-.64-.505-.822s.333.269.473.327,1.477.286.35-.433-1.047-1.484-1.189-1.462-.584-.3-.705-.419-.2-.763-.706-.7-.552.052-.433-.393.11-.614-.232-.552a2.173,2.173,0,0,1-.688,0s.455-.479-.213-.336-1.369.286-1.429.589-.179.382-.479.966-.641.523-.961.847.08-.322-.458.463-.581.383-.539.785a.916.916,0,0,1-.239.684Z" transform="translate(-695.532 -436.016)" fill="#6bb7bf"/>
                <path id="Path_5286" data-name="Path 5286" d="M726.455,460.828s.567-.608-.131-.874-.654.1-.828-.5a3.618,3.618,0,0,1-.173-.753s.38-.423-.383-.38-.458.323-.785-.2-.319-.747-.633-.954-.222-.262-.692-.593a1.359,1.359,0,0,0-.951-.292s-.262-.262-.4.041a5.513,5.513,0,0,0-.056,1.265,1.815,1.815,0,0,1-.1.382l-.762.284a1.279,1.279,0,0,0-.321.041l-.12.041s-.1.181-.14.262.077.124.077.124.148.819.027.9.321-.042-.12.08-.822.425-.962.405-.161.041-.221-.019l-.06-.06-.32.523c.082.321.845.639.5.822s-.333-.269-.474-.327-1.477-.286-.349.433,1.047,1.484,1.189,1.463.585.3.706.418.2.763.705.7.552-.052.433.393-.11.614.232.552a2.188,2.188,0,0,1,.688,0s-.455.478.213.336,1.369-.285,1.428-.589.181-.381.479-.966.641-.523.961-.847-.079.322.458-.463.582-.383.54-.785a.915.915,0,0,1,.239-.683Z" transform="translate(-706.14 -446.744)" fill="#6bb7bf"/>
            </g>
            <g id="Group_4189" data-name="Group 4189" transform="translate(297.491 354.04)">
                <path id="Path_5287" data-name="Path 5287" d="M669.282,692.647h0a5.279,5.279,0,0,0-1.6.241l-9.7,3.039a1.342,1.342,0,0,0-.94,1.279v.659h31.666v-5.22Z" transform="translate(-657.042 -692.642)" fill="#bc3f3f"/>
                <path id="Path_5288" data-name="Path 5288" d="M724.087,697.863H705.349V697.2a1.341,1.341,0,0,1,.939-1.279l9.7-3.039a5.29,5.29,0,0,1,4.764.822l2.658,2a1.343,1.343,0,0,1,.523.9Z" transform="translate(-686.206 -692.643)" fill="#a53d38"/>
            </g>
            <path id="Path_5289" data-name="Path 5289" d="M1155.388,688.323a4.487,4.487,0,1,1-4.487-4.487,4.488,4.488,0,0,1,4.487,4.487Z" transform="translate(-655.01 -333.283)" fill="#466aa5"/>
            <path id="Path_5290" data-name="Path 5290" d="M1030.808,658.559h54.978l1.516-1.516a8.292,8.292,0,0,0-.744-12.383,71.133,71.133,0,0,0-44.051-15.295c-13.64,0-17.938,7.881-17.958,15.335C1024.527,652.311,1030.808,658.559,1030.808,658.559Z" transform="translate(-581.435 -300.399)" fill="#f1a34f"/>
            <path id="Path_5291" data-name="Path 5291" d="M1092.88,652.961a72.393,72.393,0,0,0-16.777-9.85,72.357,72.357,0,0,1,11.325,7.3,8.293,8.293,0,0,1,.744,12.383l-1.516,1.516h-51.637a22.838,22.838,0,0,0,2.11,2.552h54.979l1.516-1.516a8.291,8.291,0,0,0-.745-12.384Z" transform="translate(-587.754 -308.694)" fill="#d86713"/>
            <path id="Path_5292" data-name="Path 5292" d="M1068.094,664.639a13.632,13.632,0,1,0-19.355,0Z" transform="translate(-593.655 -307.667)" fill="#d86713"/>
            <circle id="Ellipse_495" data-name="Ellipse 495" cx="13.631" cy="13.631" r="13.631" transform="translate(449.372 332.263)" fill="#466aa5"/>
            <circle id="Ellipse_496" data-name="Ellipse 496" cx="11.075" cy="11.075" r="11.075" transform="translate(451.928 334.82)" fill="#7a97f3"/>
            <path id="Path_5293" data-name="Path 5293" d="M944.855,550.446C940.794,550.2,931.013,549,927.4,543c-2.378-3.943-1.706-9.394,2-16.2a41.381,41.381,0,0,0,5.256-21.256,39.05,39.05,0,0,0-5-17.975c-4.65-8.219-11.952-13.712-18.6-14-10.4-.445-16.063,3.61-18.516,6.069a1.7,1.7,0,0,1,1.352,1.555,16.234,16.234,0,0,1,2.938-2.339c2.617-1.642,7.191-3.533,14.136-3.241,5.962.254,12.6,5.341,16.911,12.959,3.065,5.417,9.175,19.89-.272,37.247-4.079,7.5-4.736,13.633-1.954,18.242,4.271,7.072,15.284,8.259,19.44,8.451A16.439,16.439,0,0,1,944.855,550.446Z" transform="translate(-501.731 -206.316)" fill="#d86713"/>
            <path id="Rectangle_2227" data-name="Rectangle 2227" d="M1.611,0h.724A1.611,1.611,0,0,1,3.946,1.611h0A1.611,1.611,0,0,1,2.335,3.223H1.611A1.611,1.611,0,0,1,0,1.611H0A1.611,1.611,0,0,1,1.611,0Z" transform="matrix(0.997, 0.075, -0.075, 0.997, 441.66, 343.532)" fill="#f1a34f"/>
            <path id="Path_5294" data-name="Path 5294" d="M1022.6,666.309l-1.351-.1a.483.483,0,0,0-.517.446l-.041.555a.482.482,0,0,1,.495-.336l1.352.1a.487.487,0,0,0-.034.162l-.052,2.394.057,0a.533.533,0,0,1-.007-.082l.065-2.981a.5.5,0,0,1,.035-.162Z" transform="translate(-579.103 -322.638)" fill="#ffb973"/>
            <path id="Path_5295" data-name="Path 5295" d="M1025.481,647c.024-8.325,4.825-17.129,20.058-17.129a80.243,80.243,0,0,1,9.044.51,71.2,71.2,0,0,0-12.077-1.021c-13.639,0-17.938,7.881-17.958,15.335a16.85,16.85,0,0,0,1.553,6.834,17.078,17.078,0,0,1-.621-4.529Z" transform="translate(-581.434 -300.399)" fill="#ffb973"/>
            <path id="Path_5296" data-name="Path 5296" d="M644.292,356.316l.851,88.531-1.328-1.33Z" transform="translate(-351.563 -135.541)" fill="#7a97f3"/>
        </g>
    </g>
</svg>
