<svg xmlns="http://www.w3.org/2000/svg" xmlns:xlink="http://www.w3.org/1999/xlink" width="272.955" height="223.556" viewBox="0 0 272.955 223.556">
    <defs>
        <clipPath id="clip-path">
            <path id="Path_5298" data-name="Path 5298" d="M51,0H221.955a51,51,0,0,1,51,51V172.556a51,51,0,0,1-51,51H51a51,51,0,0,1-51-51V51A51,51,0,0,1,51,0Z" transform="translate(1387.187 1745.517)" fill="#dfdeff"/>
        </clipPath>
    </defs>
    <g id="Mask_Group_66" data-name="Mask Group 66" transform="translate(-1387.187 -1745.517)" clip-path="url(#clip-path)">
        <g id="Group_4201" data-name="Group 4201" transform="translate(1356.689 1713.257)">
            <path id="Path_5298-2" data-name="Path 5298" d="M29.789,255.125c-3.7-7.708-23.106-51.509-9.538-95.568a98.807,98.807,0,0,1,10.895-23.743c.2-.319.4-.636.61-.954a103.959,103.959,0,0,1,9.788-12.812C70,90.164,96.249,85.838,117.782,88.006c17.182,1.726,31.361,7.591,41.272,6.882,22.329-1.592,29.49-51.8,95.547-66.943a195.507,195.507,0,0,1,42.749-4.794c41.3-.053,82.471,13.455,87.893,50.749a65.289,65.289,0,0,1,.007,17.654,94.394,94.394,0,0,1-3.034,14.365,157.951,157.951,0,0,1-13.154,31.061c-19.6,36.2,6.048,42.511,29.223,56.869q1.429.885,2.843,1.815c14.485,9.544,28.113,48.348,15.9,59.472Z" transform="translate(0 0)" fill="#fcecdb"/>
            <path id="Path_5299" data-name="Path 5299" d="M324.3,82.544l-4.808-3.893-97.805,131.62L273.746,73.935,248.829,88.4l24.528-64.236A188.015,188.015,0,0,0,254.6,27.45q-5.08,1.165-9.7,2.6L170.715,169.532,193.938,132.6,148.976,234.375l-3.7-41.922L217.67,42.32C184.482,63,176.282,93.164,159.054,94.392c-9.911.709-24.09-5.156-41.272-6.882C96.249,85.341,70,89.668,41.545,121.552a103.959,103.959,0,0,0-9.788,12.812q-.308.478-.61.954a98.807,98.807,0,0,0-10.895,23.743c-13.568,44.059,5.841,87.86,9.538,95.568l230.646.007L351.371,73.323,239.178,235.6Z" transform="translate(0 0.496)" fill="#c1dfd4"/>
            <g id="Group_4192" data-name="Group 4192" transform="translate(71.177 110.066)">
                <path id="Path_5300" data-name="Path 5300" d="M101.435,94.634s1.944-3.358.992-5.344-1.819-2.51-2.337-1.558-.584,6.052-.584,6.052Z" transform="translate(-30.149 -78.75)" fill="#ffb27d"/>
                <g id="Group_4191" data-name="Group 4191" transform="translate(62.09 0)">
                    <path id="Path_5301" data-name="Path 5301" d="M94.814,100.916l.183.168a.48.48,0,0,0,.666.033L110.325,85.83l-1.457-1.788L94.721,100.224A.5.5,0,0,0,94.814,100.916Z" transform="translate(-94.623 -80.327)" fill="#ed7d2b"/>
                    <path id="Path_5302" data-name="Path 5302" d="M102.694,83.313l6.217,6.483,1.175-.916-7.033-7.334Z" transform="translate(-90.681 -81.546)" fill="#e5bd9e"/>
                </g>
                <path id="Path_5303" data-name="Path 5303" d="M83.874,137.215c.2,1.523-25.577,54.188-25.767,63.9l-3.744.2s0-26.163,7.3-36.5a6.511,6.511,0,0,0,1.191-3.536c.277-8.136,1.927-36.8,11.405-35.756C85.3,126.739,83.874,137.215,83.874,137.215Z" transform="translate(-52.196 -60.081)" fill="#ffb27d"/>
                <path id="Path_5304" data-name="Path 5304" d="M56.263,175.822c1.371,4.979,12.4,7.281,12.4,7.281l.823-2.426.179-.525,4.851-14.308,1.887-5.565,4.985-14.693s-2.8-17.044-9.587-19.836S59.464,160.181,59.589,161.7,56.263,175.822,56.263,175.822Z" transform="translate(-51.267 -60.031)" fill="#2b478b"/>
                <path id="Path_5305" data-name="Path 5305" d="M65.292,181.725H53.261a6.606,6.606,0,0,1,.34-3.225c.6-1.335,1.356-1.806,1.376-3.644a4.257,4.257,0,0,0,3.693,1.522,13.2,13.2,0,0,0,2.087,2.706C61.544,179.649,65.05,179.447,65.292,181.725Z" transform="translate(-52.766 -35.975)" fill="#233862"/>
                <path id="Path_5306" data-name="Path 5306" d="M65.888,175.692l.179-.525,4.851-14.308-.86-6.254c-.088-7.949-4.2-19.526-6.424-18.765C63.635,135.841,67.162,149.368,65.888,175.692Z" transform="translate(-47.667 -55.047)" fill="#233862"/>
                <path id="Path_5307" data-name="Path 5307" d="M76.793,104.01s-13.389,14-15.594,17.139-6.773,16.989-6.773,16.989l2.52.513s8.033-13.91,8.664-14.765,11.184-7.943,11.184-7.943Z" transform="translate(-52.165 -70.576)" fill="#ffb27d"/>
                <path id="Path_5308" data-name="Path 5308" d="M58.155,123.4s1.5,1.9,5.137,1.27c0,0,.464-.8.687-.893.133-.057,6.6-4.6,11.791-8.256,3.494-2.458,6.4-4.51,6.4-4.51l-7.2-7s-15.3,15.873-15.847,17.2S58.155,123.4,58.155,123.4Z" transform="translate(-50.343 -70.576)" fill="#d8716b"/>
                <path id="Path_5309" data-name="Path 5309" d="M62.068,121.024c.133-.057,6.6-4.6,11.791-8.256a.022.022,0,0,0,0-.011,6.585,6.585,0,0,0-2.285-3.109S62.972,117.55,62.068,121.024Z" transform="translate(-48.432 -67.822)" fill="#b84c42"/>
                <path id="Path_5310" data-name="Path 5310" d="M72.045,109.594h6.807a23.724,23.724,0,0,0,1.468-4.777,24.471,24.471,0,0,0,.4-2.88c.04-.55.04-.866.04-.866l-5.84-1.927-.663,2.414Z" transform="translate(-43.56 -72.952)" fill="#ffb27d"/>
                <path id="Path_5311" data-name="Path 5311" d="M73.528,100.846a9.046,9.046,0,0,0,6.066,3.26,24.471,24.471,0,0,0,.4-2.88A13.126,13.126,0,0,0,73.528,100.846Z" transform="translate(-42.835 -72.242)" fill="#ed985f"/>
                <path id="Path_5312" data-name="Path 5312" d="M83.2,104.808s-6.968,3.452-9.051-.921-4.385-6.872-.024-9.261,6.027-1.135,7.077.155S84.955,103.8,83.2,104.808Z" transform="translate(-43.757 -75.818)" fill="#ffb27d"/>
                <path id="Path_5313" data-name="Path 5313" d="M80.582,126.437s1,32.738.994,42.521-.429,32.313-.429,32.313l-1.865.72L77.4,199.836s-6.794-25.76-6.176-29.34c1.536-8.885-9.805-17.263,2.011-43C76.655,120.044,80.582,126.437,80.582,126.437Z" transform="translate(-45.638 -60.868)" fill="#ffb27d"/>
                <path id="Path_5314" data-name="Path 5314" d="M85.182,181.7H73.151a6.606,6.606,0,0,1,.34-3.225c.6-1.335,1.545-1.941,1.319-3.557a4.333,4.333,0,0,0,3.75,1.435,13.2,13.2,0,0,0,2.088,2.706C81.434,179.62,84.94,179.418,85.182,181.7Z" transform="translate(-43.052 -35.946)" fill="#233862"/>
                <path id="Path_5315" data-name="Path 5315" d="M79.578,119.624s18.2-3.436,21.312-5.89S111.655,92.5,111.655,92.5l-1.93-.85s-12.64,17.506-13.519,18-14.379-.839-16.628,1.257S79.578,119.624,79.578,119.624Z" transform="translate(-40.369 -76.613)" fill="#ffb27d"/>
                <path id="Path_5316" data-name="Path 5316" d="M84.629,130.883c.1.311.642,10.475-.952,27.325-1.061,11.212-.246,22.943-.876,26.406,0,0-6.581.757-10.48-1.654,0,0-9.266-52.372-4-54.149S84.629,130.883,84.629,130.883Z" transform="translate(-46.169 -58.692)" fill="#2b478b"/>
                <path id="Path_5317" data-name="Path 5317" d="M77.4,105.063l7.25,11.466a.417.417,0,0,1,.042-.148.007.007,0,0,0,0-.006c.912-1.9,15.468-6.142,16.486-6.79,1.047-.666,2.437-3.309,2.437-3.309-.562-3.023-3.994-4.88-3.994-4.88s-2.79,2.89-3.107,3.239S86,104.3,83.045,104.206A17.43,17.43,0,0,0,77.4,105.063Z" transform="translate(-40.945 -71.852)" fill="#d8716b"/>
                <path id="Path_5318" data-name="Path 5318" d="M82.3,113.687c.912-1.9,15.468-6.142,16.486-6.79C98.786,106.9,84.265,107.23,82.3,113.687Z" transform="translate(-38.551 -69.165)" fill="#b84c42"/>
                <path id="Path_5319" data-name="Path 5319" d="M62.876,142.054l.006.008a1.405,1.405,0,0,0,.468.413c9.046,4.975,20.024,2.188,23.389,1.032a1.7,1.7,0,0,0,1.146-1.594c.168-15.63,3.7-16.955,4.246-24.853a34.745,34.745,0,0,0-1.176-12.791l-6.136-.393a14.036,14.036,0,0,1-5.582.672,4,4,0,0,1-1.592-.769s-3.953-.35-4.844.383c-3.972,3.269-4.126,15.315-4,23.244.067,4.1-1.7,6.144-2.976,8.059-1.209,1.811-2.346,3.77-3.041,5.006A1.474,1.474,0,0,0,62.876,142.054Z" transform="translate(-48.174 -70.729)" fill="#d8716b"/>
                <path id="Path_5320" data-name="Path 5320" d="M62.876,134.274l.006.008c1.024,1.091,5.925-4.089,6.876-7.136s-.956-7.521-.956-7.521c.067,4.1-1.7,6.144-2.976,8.059-1.209,1.811-2.346,3.77-3.041,5.006A1.474,1.474,0,0,0,62.876,134.274Z" transform="translate(-48.174 -62.949)" fill="#b84c42"/>
                <path id="Path_5321" data-name="Path 5321" d="M57.687,127.453s-.474,3.071-1.235,3.928-2.9,2.475-3.237,1.523,1.047-3.47,1-3.877-1,.63-1.285.469,2.237-2.555,2.237-2.555Z" transform="translate(-52.907 -59.376)" fill="#ffb27d"/>
                <path id="Path_5322" data-name="Path 5322" d="M79.747,92.254s2.788-.611,3.393,1.574-2.441,4.833-3.393,6.413-3.012,6.3-4.124,6.413-4.09-4.547-5.266-5.595-2.319-6,1.583-7.711A15.494,15.494,0,0,1,79.747,92.254Z" transform="translate(-44.93 -76.37)" fill="#2b478b"/>
                <path id="Path_5323" data-name="Path 5323" d="M70.946,121.16a6.06,6.06,0,0,1,4.3,6.384s6.6-1.3,7.362-4.95a9.315,9.315,0,0,0-.73-6.664c1.434.429,2.091,1.994,2.4,3.513a6.693,6.693,0,0,0-1.761-5.226c-3.5-3.912-8.808-3.848-6.982-6.315,5.257-7.108,1.463-15.138,1.463-15.138s-1.858-1.517-6.413-.5-5.883,7.368-5.141,10.057c1.685,6.092-.19,6-2,9.805S66.688,119.87,70.946,121.16Z" transform="translate(-47.946 -76.484)" fill="#2b478b"/>
                <path id="Path_5324" data-name="Path 5324" d="M99.761,92.817a3.149,3.149,0,0,1-.648-1.229c-.127-.635-.287-2.54.19-2.317s.635,2.607,1.809,1.764S99.761,92.817,99.761,92.817Z" transform="translate(-30.405 -77.782)" fill="#ffb27d"/>
                <path id="Path_5325" data-name="Path 5325" d="M79.747,92.651s2.451,2.473-2.563,9.662c0,0,.73-3.246-1.555-3.722S79.747,92.651,79.747,92.651Z" transform="translate(-42.05 -76.123)" fill="#2b478b"/>
            </g>
            <path id="Path_5326" data-name="Path 5326" d="M102.936,83.055l3.191-4.6,7.541,7.212a1.924,1.924,0,0,1-.472,3.112l-3.227,1.607Z" transform="translate(42.704 27.011)" fill="#c6916d"/>
            <g id="Group_4193" data-name="Group 4193" transform="translate(167.674 157.163)">
                <path id="Path_5327" data-name="Path 5327" d="M171.665,124.355a11.165,11.165,0,1,0-22.33,0v87.106h14.724v-76.52A11.17,11.17,0,0,0,171.665,124.355Z" transform="translate(-102.31 -113.19)" fill="#4f7bba"/>
                <path id="Path_5328" data-name="Path 5328" d="M247.433,169.378h-90.6V128.055A14.865,14.865,0,0,1,171.7,113.19h85.883Z" transform="translate(-98.647 -113.189)" fill="#b2cbfd"/>
                <rect id="Rectangle_2229" data-name="Rectangle 2229" width="33.026" height="59.67" transform="translate(15.593 38.378)" fill="#4f7bba"/>
                <path id="Rectangle_2230" data-name="Rectangle 2230" d="M3.713,0H71.677V14.962H3.712A3.712,3.712,0,0,1,0,11.25V3.713A3.713,3.713,0,0,1,3.713,0Z" transform="translate(36.909 56.189)" fill="#7a97f3"/>
                <path id="Path_5329" data-name="Path 5329" d="M117.74,154.567a15.593,15.593,0,1,1,31.185,0v44.078H129.763v-28.9A15.6,15.6,0,0,1,117.74,154.567Z" transform="translate(-117.74 -100.597)" fill="#7a97f3"/>
                <path id="Path_5330" data-name="Path 5330" d="M288.963,169.378H200.79V128.055a14.865,14.865,0,0,1,14.865-14.865h71.9Z" transform="translate(-77.18 -113.189)" fill="#b2cbfd"/>
                <rect id="Rectangle_2231" data-name="Rectangle 2231" width="49.736" height="59.67" transform="translate(163.939 38.378)" fill="#466aa5"/>
                <path id="Path_5331" data-name="Path 5331" d="M273.911,124.445a11.166,11.166,0,1,0-22.33,0v86.676h14.724V135.115A11.252,11.252,0,0,0,273.911,124.445Z" transform="translate(-52.374 -113.189)" fill="#466aa5"/>
                <path id="Rectangle_2232" data-name="Rectangle 2232" d="M3.712,0h61.57V14.962H3.712A3.712,3.712,0,0,1,0,11.25V3.712A3.712,3.712,0,0,1,3.712,0Z" transform="translate(91.961 56.189)" fill="#4f7bba"/>
                <path id="Rectangle_2233" data-name="Rectangle 2233" d="M3.712,0h61.57V14.962H3.713A3.713,3.713,0,0,1,0,11.25V3.712A3.712,3.712,0,0,1,3.712,0Z" transform="translate(93.24 56.189)" fill="#7a97f3"/>
                <path id="Path_5332" data-name="Path 5332" d="M248.6,154.567a15.593,15.593,0,1,0-31.185,0v44.078h19.162V169.219C243.462,167.6,248.6,161.951,248.6,154.567Z" transform="translate(-69.063 -100.597)" fill="#7a97f3"/>
                <rect id="Rectangle_2234" data-name="Rectangle 2234" width="106.002" height="26.898" transform="translate(42.345 71.151)" fill="#466aa5"/>
                <circle id="Ellipse_497" data-name="Ellipse 497" cx="3.133" cy="3.133" r="3.133" transform="translate(160.126 51.529)" fill="#4f7bba"/>
                <circle id="Ellipse_498" data-name="Ellipse 498" cx="3.133" cy="3.133" r="3.133" transform="translate(11.908 51.529)" fill="#4f7bba"/>
                <path id="Path_5333" data-name="Path 5333" d="M228.472,151.215s2.014-3.261,4.86-3.2c0,0-3.1-.9-6.075,2.526l.543,2.078c2.393-.875,2.095,4.512,2.095,4.512S231.755,149.722,228.472,151.215Z" transform="translate(-64.253 -96.232)" fill="#4f7bba"/>
                <path id="Path_5334" data-name="Path 5334" d="M228.522,144.529s-2.179,4.541-.107,7.9-1.357.508-1.357.508S225.308,149.361,228.522,144.529Z" transform="translate(-64.583 -97.884)" fill="#4f7bba"/>
                <path id="Path_5335" data-name="Path 5335" d="M123.65,152.754s.426-3.069,5.329-2.835,0,1.527,0,1.527A5.8,5.8,0,0,0,123.65,152.754Z" transform="translate(-114.854 -95.258)" fill="#4f7bba"/>
            </g>
            <g id="Group_4195" data-name="Group 4195" transform="translate(116.638 231.439)">
                <path id="Path_5336" data-name="Path 5336" d="M106.694,163.093l-.037.544-.05.755-1.5,21.985H85.615L83.739,164.39l-.087-1.02-.024-.277Z" transform="translate(-83.364 -163.093)" fill="#2b478b"/>
                <path id="Path_5337" data-name="Path 5337" d="M102.289,163.093l-.037.544-.05.755-1.5,21.985H92.648l2.53-23.284Z" transform="translate(-78.958 -163.093)" fill="#33579e"/>
                <path id="Path_5338" data-name="Path 5338" d="M106.649,163.547l-.05.755c-.848-.084-7.733-.75-11.138-.75-3.386,0-10.747.657-11.729.747l-.087-1.02Z" transform="translate(-83.356 -163.002)" fill="#233862"/>
                <path id="Path_5339" data-name="Path 5339" d="M107.122,163.644h-23.4a.276.276,0,0,1-.275-.275h0a.276.276,0,0,1,.275-.275h23.4a.276.276,0,0,1,.275.275h0a.276.276,0,0,1-.275.275Z" transform="translate(-83.451 -163.093)" fill="#2b478b"/>
                <g id="Group_4194" data-name="Group 4194" transform="translate(0 0.275)">
                    <path id="Path_5340" data-name="Path 5340" d="M94.718,170.893c-10.1,0-11.254-7.538-11.267-7.615h0c.053.3,1.676,7.33,11.791,7.08,10.155-.26,12.139-6.963,12.156-7.032h0c-.017.073-1.585,7.29-12.142,7.56C95.073,170.892,94.894,170.893,94.718,170.893Z" transform="translate(-83.451 -163.278)" fill="#f99746"/>
                </g>
                <path id="Path_5341" data-name="Path 5341" d="M93.87,169.19H90.052a.867.867,0,0,1-.864-.864h0a.867.867,0,0,1,.864-.864H93.87a.867.867,0,0,1,.864.864h0A.867.867,0,0,1,93.87,169.19Z" transform="translate(-80.648 -160.96)" fill="#f99746"/>
                <path id="Path_5342" data-name="Path 5342" d="M104.706,179.272H84.774l.143-1.628h19.744Z" transform="translate(-82.804 -155.987)" fill="#233862"/>
            </g>
            <g id="Group_4197" data-name="Group 4197" transform="translate(143.975 235.868)">
                <path id="Path_5343" data-name="Path 5343" d="M120.641,166.069l-.03.443-.043.612-.152,2.252-.725,10.633-.334,4.916H103.569l-.421-4.916-.9-10.6-.2-2.291-.069-.824-.017-.226Z" transform="translate(-101.746 -166.069)" fill="#ed7d2b"/>
                <path id="Path_5344" data-name="Path 5344" d="M117.071,166.07l-.03.44-.041.612-1.213,17.8h-6.523l2.049-18.854Z" transform="translate(-98.18 -166.068)" fill="#f99746"/>
                <path id="Path_5345" data-name="Path 5345" d="M120.6,166.437l-.041.612c-.686-.068-6.262-.607-9.019-.607-2.742,0-8.7.533-9.5.605l-.071-.826Z" transform="translate(-101.741 -165.995)" fill="#d36922"/>
                <path id="Path_5346" data-name="Path 5346" d="M120.985,166.515H102.04a.224.224,0,0,1-.223-.223h0a.224.224,0,0,1,.223-.223h18.945a.223.223,0,0,1,.223.223h0a.223.223,0,0,1-.223.223Z" transform="translate(-101.817 -166.069)" fill="#f99746"/>
                <g id="Group_4196" data-name="Group 4196" transform="translate(0.001 0.225)">
                    <path id="Path_5347" data-name="Path 5347" d="M110.941,172.386c-8.174,0-9.113-6.1-9.123-6.166h0c.043.244,1.357,5.935,9.547,5.733,8.223-.211,9.829-5.638,9.843-5.694h0c-.014.059-1.283,5.9-9.832,6.122Z" transform="translate(-101.818 -166.22)" fill="#33579e"/>
                </g>
                <path id="Path_5348" data-name="Path 5348" d="M110.255,171.007h-3.091a.7.7,0,0,1-.7-.7h0a.7.7,0,0,1,.7-.7h3.091a.7.7,0,0,1,.7.7h0a.7.7,0,0,1-.7.7Z" transform="translate(-99.548 -164.34)" fill="#2b478b"/>
                <path id="Path_5349" data-name="Path 5349" d="M119.03,179.17H102.89l.115-1.318h15.987Z" transform="translate(-101.294 -160.314)" fill="#d36922"/>
            </g>
            <path id="Path_5350" data-name="Path 5350" d="M272.6,114.741a1.477,1.477,0,0,0-1.1-2.467H195.314s-10.254.338-11.234,1.364-14.477-4.855-20.207,3.967.9,31.668-31.668,33.326c-18.4,1.056-18.85,18.662-11.461,60.754l67.067-.488s23.412-1.082,29.293-6.773,12.064-28.913,23.826-29.215,7.389-4.967,12.516-5.5C253.447,169.71,261.567,126.766,272.6,114.741Z" transform="translate(49.217 43.526)" fill="#ddeaf4"/>
            <path id="Path_5351" data-name="Path 5351" d="M169.848,125.481s-8.6,27.9-28.8,34.985c0,0,14.929-2.413,22.469-15.683,0,0-4.675,18.477-30.763,18.477l66.954.217S167.285,163.934,169.848,125.481Z" transform="translate(57.265 49.976)" fill="#c7dcf9"/>
            <path id="Path_5352" data-name="Path 5352" d="M215.966,117.477s-15.985,36.5-34.684,40.265C181.283,157.741,204.656,159.4,215.966,117.477Z" transform="translate(80.967 46.067)" fill="#c7dcf9"/>
            <path id="Path_5353" data-name="Path 5353" d="M196.287,119.706a66.143,66.143,0,0,1-29.67,36.947S188.613,151.269,196.287,119.706Z" transform="translate(73.805 47.156)" fill="#c7dcf9"/>
            <path id="Path_5354" data-name="Path 5354" d="M132.752,182.534s56.4,5.881,73.74-17.945C206.492,164.589,202.27,190.526,132.752,182.534Z" transform="translate(57.265 69.076)" fill="#c7dcf9"/>
            <path id="Path_5355" data-name="Path 5355" d="M186.676,162.258s-5.9,9.176-19.172,12.43C167.5,174.689,181.042,174.322,186.676,162.258Z" transform="translate(74.238 67.938)" fill="#c7dcf9"/>
            <path id="Path_5356" data-name="Path 5356" d="M191.516,165.2s-4.6,11.234-12.969,14.7C178.547,179.9,188.047,181.106,191.516,165.2Z" transform="translate(79.631 69.373)" fill="#c7dcf9"/>
            <path id="Path_5357" data-name="Path 5357" d="M126.607,156.416s-.3,18.5,3.72,24.831,19.994,3.155,19.994,3.155-14.566-2.887-15.571-10.61a17.073,17.073,0,0,0,1.005,7.042S128.618,174.713,126.607,156.416Z" transform="translate(54.262 65.084)" fill="#c7dcf9"/>
            <g id="Group_4200" data-name="Group 4200" transform="translate(351.371 210.55)">
                <g id="Group_4198" data-name="Group 4198" transform="translate(6.136)">
                    <path id="Path_5358" data-name="Path 5358" d="M250.748,193.566h34.831l-5.465-44.507H245.283Z" transform="translate(-245.283 -149.059)" fill="#d39e7a"/>
                    <path id="Path_5359" data-name="Path 5359" d="M251.668,193.566H286.5l-5.465-44.507H246.2Z" transform="translate(-244.834 -149.059)" fill="#efcbab"/>
                    <path id="Path_5360" data-name="Path 5360" d="M252.672,190.569h30.745l-4.923-40.092H247.75Z" transform="translate(-244.078 -148.366)" fill="#f9ddbf"/>
                    <path id="Path_5361" data-name="Path 5361" d="M249.217,165.5h31.843l-.276-2.245H248.941Z" transform="translate(-243.497 -142.124)" fill="#efcbab"/>
                    <path id="Path_5362" data-name="Path 5362" d="M272.6,155.691l-.814-6.632H265.15Z" transform="translate(-235.581 -149.059)" fill="#e5bd9e"/>
                    <path id="Path_5363" data-name="Path 5363" d="M247.018,155.691l-.814-6.632h6.632Z" transform="translate(-244.834 -149.059)" fill="#e5bd9e"/>
                    <path id="Path_5364" data-name="Path 5364" d="M268.821,181.142h6.632l-.814-6.632Z" transform="translate(-233.788 -136.629)" fill="#e5bd9e"/>
                    <path id="Path_5365" data-name="Path 5365" d="M256.775,181.142h-6.632l-.814-6.632Z" transform="translate(-243.308 -136.629)" fill="#e5bd9e"/>
                </g>
                <g id="Group_4199" data-name="Group 4199" transform="translate(0 10.684)">
                    <path id="Path_5366" data-name="Path 5366" d="M245.312,190.049h26.461l-4.151-33.812H241.161Z" transform="translate(-241.161 -156.237)" fill="#d39e7a"/>
                    <path id="Path_5367" data-name="Path 5367" d="M246.082,190.049h26.461l-4.152-33.812H241.931Z" transform="translate(-240.785 -156.237)" fill="#efcbab"/>
                    <path id="Path_5368" data-name="Path 5368" d="M246.846,187.772H270.2l-3.74-30.458H243.106Z" transform="translate(-240.211 -155.711)" fill="#f9ddbf"/>
                    <path id="Path_5369" data-name="Path 5369" d="M244.22,168.73h24.191l-.209-1.706H244.011Z" transform="translate(-239.769 -150.969)" fill="#efcbab"/>
                    <path id="Path_5370" data-name="Path 5370" d="M261.981,161.275l-.618-5.038h-5.038Z" transform="translate(-233.755 -156.237)" fill="#e5bd9e"/>
                    <path id="Path_5371" data-name="Path 5371" d="M242.549,161.275l-.618-5.038h5.039Z" transform="translate(-240.785 -156.237)" fill="#e5bd9e"/>
                    <path id="Path_5372" data-name="Path 5372" d="M259.114,180.611h5.039l-.618-5.038Z" transform="translate(-232.393 -146.794)" fill="#e5bd9e"/>
                    <path id="Path_5373" data-name="Path 5373" d="M249.963,180.611h-5.04l-.618-5.038Z" transform="translate(-239.625 -146.794)" fill="#e5bd9e"/>
                </g>
            </g>
        </g>
    </g>
</svg>
