<svg xmlns="http://www.w3.org/2000/svg" width="354.439" height="327.058" viewBox="0 0 354.439 327.058">
  <g id="Group_4135" data-name="Group 4135" transform="translate(-106.51 -97.871)">
    <g id="Group_4136" data-name="Group 4136" transform="translate(145.681 122.82)">
      <g id="Group_4135-2" data-name="Group 4135" transform="translate(-9.578 -13.949)">
        <text id="Daily" transform="translate(190.946 104)" fill="#fff" font-size="107" font-family="SegoeUI, Segoe UI"><tspan x="-116.535" y="0">Daily</tspan></text>
        <text id="Cleaninig" transform="translate(-15 150.038)" fill="#fff" font-size="59.497" font-family="SegoeUI, Segoe UI" baseline-shift="-33.99660063125084"><tspan x="0" y="0">Cleaninig</tspan></text>
      </g>
      <text id="crew" transform="translate(113.895 182.089)" fill="#68b5b1" font-size="17" font-family="SegoeUI, Segoe UI" letter-spacing="0.2em"><tspan x="-22.569" y="0">crew</tspan></text>
    </g>
    <g id="Group_4156" data-name="Group 4156" transform="translate(107.043 135.526)">
      <g id="Group_4139" data-name="Group 4139" transform="translate(44.139 23.743)">
        <g id="Group_4137" data-name="Group 4137" transform="translate(0 163.006)">
          <path id="Path_5187" data-name="Path 5187" d="M184.954,305.082A4.176,4.176,0,1,0,181.423,298l-.056-.051a8.551,8.551,0,1,0-14.93-4.786l-.055.011a12.182,12.182,0,1,0-7.638,13.44l6.8,15.472,9.658-7.937a6.311,6.311,0,1,0,7.543-9.089l.088-.251A4.131,4.131,0,0,0,184.954,305.082Z" transform="translate(-142.242 -283.092)" fill="#dddde0"/>
          <path id="Path_5188" data-name="Path 5188" d="M325.659,304.384a5.921,5.921,0,0,0-9.228-5.277,8.6,8.6,0,1,0-15.1,7.055,6.154,6.154,0,0,0-7.9,3.879,15.2,15.2,0,0,0-21.73-1.845,10.468,10.468,0,0,0-10.25-12.6,10.382,10.382,0,0,0-6.838,2.6,12.726,12.726,0,0,0-25.371,1.307,7.848,7.848,0,0,0-13.573,5.386c0,.209.045.406.061.612a12.2,12.2,0,0,0-19.206,7.154,8.866,8.866,0,1,0-9.586,14.16v3.433s21.495,8.633,52.725,8.633c19.112,0,32.238-2.342,39.569-4.161a15.324,15.324,0,0,0,2.426.211c8.412,0,15.842-2.746,15.842-11.158a15.244,15.244,0,0,0-.128-1.88,6.259,6.259,0,0,0,2.213.561c2,.118,6.107-2.218,7.342-3.6h0l15.738-9.652,0-.006A5.932,5.932,0,0,0,325.659,304.384Z" transform="translate(-132.416 -282.126)" fill="#dddde0"/>
        </g>
        <g id="Group_4138" data-name="Group 4138" transform="translate(206.519)">
          <circle id="Ellipse_487" data-name="Ellipse 487" cx="9.333" cy="9.333" r="9.333" transform="translate(17.185 5.896)" fill="#dddde0"/>
          <path id="Path_5189" data-name="Path 5189" d="M331.671,159.282a6.179,6.179,0,1,0,6.178-6.18A6.179,6.179,0,0,0,331.671,159.282Z" transform="translate(-300.647 -153.102)" fill="#dddde0"/>
          <path id="Path_5190" data-name="Path 5190" d="M306.931,162.272a5.039,5.039,0,1,0,5.04-5.039A5.039,5.039,0,0,0,306.931,162.272Z" transform="translate(-306.931 -152.053)" fill="#dddde0"/>
        </g>
      </g>
      <g id="Group_4152" data-name="Group 4152" transform="translate(0 7.405)">
        <g id="Group_4143" data-name="Group 4143">
          <g id="Group_4140" data-name="Group 4140">
            <path id="Path_5191" data-name="Path 5191" d="M259.289,386.942A144.4,144.4,0,0,0,371.964,333L357.11,322.337a135.561,135.561,0,0,1-237.978-88.845c0-32.318,11.005-63.407,29.879-86.7-21.648,25.293-34.432,59.542-34.432,95.444A144.71,144.71,0,0,0,259.289,386.942Z" transform="translate(-105.129 -138.367)" fill="#27437a" stroke="#fff" stroke-miterlimit="10" stroke-width="1.067"/>
            <path id="Path_5192" data-name="Path 5192" d="M261.2,388.647a144.71,144.71,0,0,1-144.71-144.71c0-35.9,15.469-69.45,41.594-103.071.207-.266.411-.534.626-.794-35.6,34.462-51.67,77.241-51.67,120.5A160.966,160.966,0,0,0,268.009,421.537c54.412,0,102.322-23.04,135.43-66.2L373.878,334.7A144.4,144.4,0,0,1,261.2,388.647Z" transform="translate(-107.043 -140.073)" fill="#7ba4f3" stroke="#fff" stroke-miterlimit="10" stroke-width="1.067"/>
          </g>
          <g id="Group_4141" data-name="Group 4141" transform="translate(41.231 204.958)">
            <path id="Path_5193" data-name="Path 5193" d="M306.436,343.8a214.7,214.7,0,0,0,35.454-30.683" transform="translate(-97.63 -301.079)" fill="none" stroke="#fff" stroke-miterlimit="10" stroke-width="1.067"/>
            <path id="Path_5194" data-name="Path 5194" d="M288.513,317.753a109.627,109.627,0,0,0,11.922-7.785" transform="translate(-102.182 -301.878)" fill="none" stroke="#fff" stroke-miterlimit="10" stroke-width="1.067"/>
            <path id="Path_5195" data-name="Path 5195" d="M139.923,303.517a113.272,113.272,0,0,0,27.488,25.837s12.645,8.655,24.178,12.748" transform="translate(-139.923 -303.517)" fill="none" stroke="#fff" stroke-miterlimit="10" stroke-width="1.067"/>
            <path id="Path_5196" data-name="Path 5196" d="M150.188,320.638a109.379,109.379,0,0,0,13.186,10.556" transform="translate(-137.316 -299.168)" fill="none" stroke="#fff" stroke-miterlimit="10" stroke-width="1.067"/>
          </g>
          <g id="Group_4142" data-name="Group 4142" transform="translate(27.516 192.867)">
            <path id="Path_5197" data-name="Path 5197" d="M236.777,353.159a5.035,5.035,0,0,1,3.314,1.645,5.114,5.114,0,0,1,.93,3.605,5.183,5.183,0,0,1,1.022-3.605,5.035,5.035,0,0,1,3.314-1.645,5.029,5.029,0,0,1-3.314-1.645,5.183,5.183,0,0,1-1.022-3.605,5.114,5.114,0,0,1-.93,3.605A5.029,5.029,0,0,1,236.777,353.159Z" transform="translate(-101.608 -280.151)" fill="#fff"/>
            <path id="Path_5198" data-name="Path 5198" d="M221.8,348.711a3.794,3.794,0,0,1,2.5,1.24,3.858,3.858,0,0,1,.7,2.717,3.9,3.9,0,0,1,.77-2.717,3.791,3.791,0,0,1,2.5-1.24,3.8,3.8,0,0,1-2.5-1.24,3.9,3.9,0,0,1-.77-2.717,3.858,3.858,0,0,1-.7,2.717A3.8,3.8,0,0,1,221.8,348.711Z" transform="translate(-105.411 -280.952)" fill="#fff"/>
            <path id="Path_5199" data-name="Path 5199" d="M128.986,297.833a3.786,3.786,0,0,1,2.5,1.239,3.854,3.854,0,0,1,.7,2.717,3.9,3.9,0,0,1,.77-2.717,3.789,3.789,0,0,1,2.5-1.239,3.8,3.8,0,0,1-2.5-1.24,3.9,3.9,0,0,1-.77-2.717,3.854,3.854,0,0,1-.7,2.717A3.794,3.794,0,0,1,128.986,297.833Z" transform="translate(-128.986 -293.875)" fill="#fff"/>
            <path id="Path_5200" data-name="Path 5200" d="M277.18,338.978a6.6,6.6,0,0,1,4.344,2.157c1.072,1.3,1.244,2.78,1.22,4.725a6.789,6.789,0,0,1,1.338-4.725,6.6,6.6,0,0,1,4.345-2.157,6.6,6.6,0,0,1-4.345-2.156,6.791,6.791,0,0,1-1.338-4.725c.024,1.945-.148,3.427-1.22,4.725A6.594,6.594,0,0,1,277.18,338.978Z" transform="translate(-91.346 -284.167)" fill="#fff"/>
          </g>
        </g>
        <g id="Group_4151" data-name="Group 4151" transform="translate(246.852 119.492)">
          <g id="Group_4147" data-name="Group 4147">
            <path id="Path_5201" data-name="Path 5201" d="M410.074,266.743c-13.908,31.5-32.5,54.31-52.284,71.006-18.266-9.607-37.755-22.961-53.894-35.825a160.523,160.523,0,0,0,26.935-28.286c9.75-13.128,20.164-24.215,28.513-38.276A349.515,349.515,0,0,0,410.074,266.743Z" transform="translate(-303.896 -235.362)" fill="#ef1f75" stroke="#27437a" stroke-miterlimit="10" stroke-width="1.347"/>
            <g id="Group_4146" data-name="Group 4146" transform="translate(33.761 34.038)">
              <g id="Group_4144" data-name="Group 4144" transform="translate(52.811)">
                <path id="Path_5202" data-name="Path 5202" d="M372.933,281.757a66.974,66.974,0,0,0,8.635-14.082" transform="translate(-372.933 -261.193)" fill="none" stroke="#27437a" stroke-miterlimit="10" stroke-width="1.347"/>
                <path id="Path_5203" data-name="Path 5203" d="M380.757,265.815a18.1,18.1,0,0,0,1.487-3.309" transform="translate(-370.946 -262.506)" fill="none" stroke="#27437a" stroke-miterlimit="10" stroke-width="1.347"/>
              </g>
              <g id="Group_4145" data-name="Group 4145" transform="translate(0 47.451)">
                <path id="Path_5204" data-name="Path 5204" d="M330.819,300.346a18.358,18.358,0,0,1,2.84,1.734" transform="translate(-330.819 -300.346)" fill="none" stroke="#27437a" stroke-miterlimit="10" stroke-width="1.347"/>
                <path id="Path_5205" data-name="Path 5205" d="M335.483,303.8l3.249,2.026" transform="translate(-329.634 -299.468)" fill="none" stroke="#27437a" stroke-miterlimit="10" stroke-width="1.347"/>
                <path id="Path_5206" data-name="Path 5206" d="M340.825,306.92a26.141,26.141,0,0,0,3.235,1.766" transform="translate(-328.278 -298.676)" fill="none" stroke="#27437a" stroke-miterlimit="10" stroke-width="1.347"/>
                <path id="Path_5207" data-name="Path 5207" d="M345.534,309.7a10.336,10.336,0,0,0,2.979,1.589" transform="translate(-327.081 -297.97)" fill="none" stroke="#27437a" stroke-miterlimit="10" stroke-width="1.347"/>
              </g>
            </g>
          </g>
          <g id="Group_4150" data-name="Group 4150" transform="translate(3.505 3.906)">
            <rect id="Rectangle_2218" data-name="Rectangle 2218" width="8.424" height="32.711" transform="translate(19.005 0) rotate(35.522)" fill="#c6c6cb" stroke="#27437a" stroke-miterlimit="10" stroke-width="1.347"/>
            <g id="Group_4149" data-name="Group 4149" transform="translate(6.841 4.895)">
              <path id="Path_5208" data-name="Path 5208" d="M374.319,290.77a4.01,4.01,0,0,0-.932-5.578l-1.425-1.017a4,4,0,1,0,4.646-6.509l-14.067-10.042a4,4,0,0,0,4.647-6.509l-17.446-12.453a3.915,3.915,0,0,0-.784-.428v0a15.319,15.319,0,0,0-9.806-.149l-7.984-5.7-19.021,26.645,7.276,5.194a67.191,67.191,0,0,0,10.359,9.325l24.475,17.473a4,4,0,1,0,4.647-6.509l3.764,2.687a4.011,4.011,0,0,0,5.578-.932h0a4.01,4.01,0,0,0-.932-5.578l1.426,1.017A4.01,4.01,0,0,0,374.319,290.77Z" transform="translate(-312.147 -242.38)" fill="#fff" stroke="#27437a" stroke-miterlimit="10" stroke-width="1.347"/>
              <g id="Group_4148" data-name="Group 4148" transform="translate(35.413 17.785)">
                <line id="Line_184" data-name="Line 184" x1="11.87" y1="8.474" transform="translate(0 26.244)" fill="none" stroke="#27437a" stroke-miterlimit="10" stroke-width="1.347"/>
                <line id="Line_185" data-name="Line 185" x1="15.707" y1="11.086" transform="translate(4.587 19.818)" fill="none" stroke="#27437a" stroke-miterlimit="10" stroke-width="1.347"/>
                <line id="Line_186" data-name="Line 186" x1="15.888" y1="11.466" transform="translate(9.352 13.143)" fill="none" stroke="#27437a" stroke-miterlimit="10" stroke-width="1.347"/>
                <line id="Line_187" data-name="Line 187" x1="13.992" y1="9.988" transform="translate(4.584)" fill="none" stroke="#27437a" stroke-miterlimit="10" stroke-width="1.347"/>
              </g>
            </g>
          </g>
        </g>
      </g>
      <g id="Group_4155" data-name="Group 4155" transform="translate(26.642)">
        <g id="Group_4153" data-name="Group 4153" transform="translate(46.655)">
          <path id="Path_5209" data-name="Path 5209" d="M200.649,158.16c5.4.71,10.595,2.778,14.062,6.98s4.025,9,3.949,15.3c-.078-6.217.864-11.094,4.333-15.3s8.66-6.27,14.062-6.98c-5.4-.711-10.594-2.779-14.062-6.98s-4.41-9.08-4.333-15.3c.077,6.3-.48,11.1-3.949,15.3S206.051,157.449,200.649,158.16Z" transform="translate(-156.565 -133.732)" fill="#7799dc"/>
          <path id="Path_5210" data-name="Path 5210" d="M165.494,149.637c3.751.494,7.356,1.929,9.764,4.847s2.8,6.25,2.742,10.623c-.054-4.317.6-7.7,3.008-10.623s6.014-4.353,9.765-4.847c-3.751-.493-7.356-1.929-9.765-4.847s-3.062-6.305-3.008-10.623c.053,4.373-.334,7.7-2.742,10.623S169.245,149.144,165.494,149.637Z" transform="translate(-165.494 -134.168)" fill="#7799dc"/>
          <path id="Path_5211" data-name="Path 5211" d="M187.391,170.686a10.564,10.564,0,0,1,6.953,3.452c1.715,2.078,1.99,4.45,1.952,7.564-.038-3.075.428-5.486,2.143-7.564a10.561,10.561,0,0,1,6.953-3.452,10.554,10.554,0,0,1-6.953-3.451c-1.715-2.078-2.181-4.491-2.143-7.564.038,3.114-.237,5.486-1.952,7.564A10.557,10.557,0,0,1,187.391,170.686Z" transform="translate(-159.932 -127.69)" fill="#7799dc"/>
        </g>
        <g id="Group_4154" data-name="Group 4154" transform="translate(0 64.842)">
          <path id="Path_5212" data-name="Path 5212" d="M363.02,232.238a5.035,5.035,0,0,1,3.316,1.645,5.127,5.127,0,0,1,.93,3.605,5.176,5.176,0,0,1,1.021-3.605,5.035,5.035,0,0,1,3.314-1.645,5.029,5.029,0,0,1-3.314-1.645,5.176,5.176,0,0,1-1.021-3.605,5.127,5.127,0,0,1-.93,3.605A5.029,5.029,0,0,1,363.02,232.238Z" transform="translate(-68.669 -175.434)" fill="#27437a"/>
          <path id="Path_5213" data-name="Path 5213" d="M171.182,265.607a5.872,5.872,0,0,1,3.866,1.919,5.966,5.966,0,0,1,1.086,4.206,6.038,6.038,0,0,1,1.191-4.206,5.872,5.872,0,0,1,3.866-1.919,5.868,5.868,0,0,1-3.866-1.92,6.038,6.038,0,0,1-1.191-4.206,5.965,5.965,0,0,1-1.086,4.206A5.868,5.868,0,0,1,171.182,265.607Z" transform="translate(-117.394 -167.181)" fill="#27437a"/>
          <path id="Path_5214" data-name="Path 5214" d="M158.209,272.528a5.041,5.041,0,0,1,3.314,1.645,5.122,5.122,0,0,1,.93,3.607,5.184,5.184,0,0,1,1.021-3.607,5.041,5.041,0,0,1,3.316-1.645,5.029,5.029,0,0,1-3.316-1.645,5.179,5.179,0,0,1-1.021-3.605,5.117,5.117,0,0,1-.93,3.605A5.029,5.029,0,0,1,158.209,272.528Z" transform="translate(-120.69 -165.2)" fill="#27437a"/>
          <path id="Path_5215" data-name="Path 5215" d="M378.839,236.756a6.6,6.6,0,0,1,4.344,2.157c1.072,1.3,1.244,2.78,1.22,4.725a6.789,6.789,0,0,1,1.338-4.725,6.6,6.6,0,0,1,4.345-2.157,6.6,6.6,0,0,1-4.345-2.156,6.791,6.791,0,0,1-1.338-4.725c.024,1.945-.148,3.427-1.22,4.725A6.594,6.594,0,0,1,378.839,236.756Z" transform="translate(-64.651 -174.701)" fill="#27437a"/>
          <path id="Path_5216" data-name="Path 5216" d="M287,272.493a8.821,8.821,0,0,1,5.81,2.884c1.433,1.736,1.663,3.718,1.631,6.32-.031-2.569.357-4.585,1.791-6.32a8.821,8.821,0,0,1,5.81-2.884,8.819,8.819,0,0,1-5.81-2.883c-1.433-1.737-1.822-3.752-1.791-6.32.031,2.6-.2,4.583-1.631,6.32A8.819,8.819,0,0,1,287,272.493Z" transform="translate(-87.977 -166.213)" fill="#27437a"/>
          <path id="Path_5217" data-name="Path 5217" d="M128.289,190.9a4.821,4.821,0,0,1,3.174,1.575,4.9,4.9,0,0,1,.89,3.452,4.968,4.968,0,0,1,.978-3.452,4.821,4.821,0,0,1,3.174-1.575,4.821,4.821,0,0,1-3.174-1.575,4.966,4.966,0,0,1-.978-3.452,4.9,4.9,0,0,1-.89,3.452A4.821,4.821,0,0,1,128.289,190.9Z" transform="translate(-128.289 -185.876)" fill="#27437a"/>
        </g>
      </g>
    </g>
  </g>
</svg>